<?xml version="1.0" standalone="no"?>
<!DOCTYPE svg PUBLIC "-//W3C//DTD SVG 20010904//EN"
 "http://www.w3.org/TR/2001/REC-SVG-20010904/DTD/svg10.dtd">
<svg version="1.0" xmlns="http://www.w3.org/2000/svg"
 width="300.000000pt" height="57.000000pt" viewBox="0 0 300.000000 57.000000"
 preserveAspectRatio="xMidYMid meet">

<g transform="translate(0.000000,57.000000) scale(0.100000,-0.100000)"
fill="#000000" stroke="none">
<path d="M685 290 l-130 -130 49 0 c40 0 54 5 89 35 l41 35 103 0 103 0 0 -35
c0 -33 2 -35 35 -35 l35 0 0 130 0 130 -98 0 -97 0 -130 -130z m255 40 l0 -40
-72 0 -72 0 39 40 c30 31 47 40 72 40 32 0 33 -1 33 -40z"/>
<path d="M1060 290 l0 -130 35 0 c33 0 35 2 35 35 l0 36 83 -3 82 -3 3 -32 c3
-31 6 -33 43 -33 39 0 39 0 39 40 0 27 -5 42 -17 49 -17 9 -17 11 0 23 14 11
18 25 15 68 -4 74 -17 80 -185 80 l-133 0 0 -130z m245 35 l0 -30 -87 -3 -88
-3 0 36 0 36 88 -3 87 -3 0 -30z"/>
<path d="M1440 290 l0 -130 35 0 35 0 0 130 0 130 -35 0 -35 0 0 -130z"/>
<path d="M1550 390 c0 -30 1 -30 55 -30 l55 0 0 -100 0 -100 40 0 40 0 0 100
0 100 60 0 60 0 0 30 0 30 -155 0 -155 0 0 -30z"/>
<path d="M1890 290 l0 -130 145 0 145 0 0 30 0 30 -105 0 -105 0 0 25 0 25
100 0 c93 0 100 1 100 20 0 19 -7 20 -100 20 l-100 0 0 25 0 25 105 0 105 0 0
30 0 30 -145 0 -145 0 0 -130z"/>
<path d="M2275 411 c-41 -17 -50 -40 -50 -123 1 -67 4 -81 23 -100 20 -21 34
-23 135 -26 136 -3 161 6 165 61 3 36 2 37 -31 37 -26 0 -36 -5 -40 -20 -5
-18 -14 -20 -80 -20 -90 0 -99 8 -95 82 l3 53 83 3 c67 2 83 0 88 -13 4 -9 19
-15 40 -15 29 0 34 4 34 23 0 13 -6 32 -14 43 -13 17 -29 19 -128 21 -62 2
-122 -1 -133 -6z"/>
<path d="M2600 290 l0 -130 40 0 40 0 0 50 0 50 87 0 87 0 -42 -43 c-23 -23
-42 -46 -42 -50 0 -4 22 -7 48 -7 45 0 51 3 112 65 l64 65 -64 65 c-62 62 -66
65 -113 65 l-49 0 42 -50 42 -50 -86 0 -86 0 0 50 0 50 -40 0 -40 0 0 -130z"/>
<path d="M22 258 c-8 -8 -12 -49 -12 -120 0 -107 0 -109 26 -118 14 -6 74 -10
132 -10 149 0 152 3 152 126 0 139 5 134 -153 134 -90 0 -137 -4 -145 -12z
m256 -113 l2 -85 -115 0 -115 0 0 85 0 85 113 0 112 0 3 -85z"/>
</g>
</svg>
