<?xml version="1.0" encoding="utf-8"?>
<!-- Generator: Adobe Illustrator 16.0.0, SVG Export Plug-In . SVG Version: 6.00 Build 0)  -->
<!DOCTYPE svg PUBLIC "-//W3C//DTD SVG 1.0//EN" "http://www.w3.org/TR/2001/REC-SVG-20010904/DTD/svg10.dtd">
<svg version="1.0" id="Layer_1" xmlns="http://www.w3.org/2000/svg" xmlns:xlink="http://www.w3.org/1999/xlink" x="0px" y="0px"
	 width="800px" height="800px" viewBox="0 0 800 800" enable-background="new 0 0 800 800" xml:space="preserve">
<g>
	<path d="M227.398,377.849c0.647-2.101,1.779-4.203,1.779-10.509c0-5.981-2.91-22.474-17.462-29.265
		c-8.732-4.042-22.476-5.659-41.231-5.659c-12.61,0-23.121,0.809-32.176,3.718c-32.337,10.187-43.654,34.117-43.654,34.117
		l44.303,4.689c0,0,7.76-14.067,26.192-14.067c8.245,0,15.36,4.528,15.36,4.528s0.162,1.616,0.162,3.232
		c0,4.852-2.265,7.923-2.265,7.923c-11.803,4.528-34.924,9.056-48.344,11.319c-13.421,2.425-27.486,5.498-38.967,13.258
		c-14.39,9.699-18.108,24.416-18.108,32.014c0,7.6,3.071,14.392,8.893,19.726c5.821,5.335,13.743,7.438,26.84,7.438
		c31.205,0,50.769-17.784,50.769-17.784s-0.969,2.263-0.969,5.658c0,5.981,2.587,8.891,2.587,8.891h45.11c0,0-1.616-2.1-1.616-6.465
		c0-1.295,0.323-3.071,0.969-5.014C206.218,443.817,226.753,379.952,227.398,377.849 M159.651,423.122
		c-8.73,9.7-22.797,10.995-26.84,10.995c-4.042,0-11.479-1.295-11.479-9.379c0-8.085,8.084-12.611,13.581-14.874
		c5.498-2.263,17.946-5.174,23.282-6.469c5.497-1.294,13.259-3.718,13.259-3.718S169.516,412.127,159.651,423.122z"/>
	<path d="M781.177,377.849c0.647-2.101,1.779-4.203,1.779-10.509c0-5.981-2.911-22.474-17.464-29.265
		c-8.731-4.042-22.475-5.659-41.232-5.659c-12.61,0-23.121,0.809-32.174,3.718c-32.337,10.187-43.653,34.117-43.653,34.117
		l44.301,4.689c0,0,7.761-14.067,26.192-14.067c8.245,0,15.36,4.528,15.36,4.528s0.164,1.616,0.164,3.232
		c0,4.852-2.267,7.923-2.267,7.923c-11.803,4.528-34.923,9.056-48.345,11.319c-13.419,2.425-27.484,5.498-38.965,13.258
		c-14.388,9.699-18.11,24.416-18.11,32.014c0,7.6,3.073,14.392,8.896,19.726c5.821,5.335,13.741,7.438,26.678,7.438
		c31.204,0,50.771-17.784,50.771-17.784s-0.974,2.263-0.974,5.658c0,5.981,2.589,8.891,2.589,8.891h45.111
		c0,0-1.617-2.1-1.617-6.465c0-1.295,0.323-3.071,0.971-5.014C759.995,443.817,780.529,379.952,781.177,377.849 M713.429,423.122
		c-8.732,9.7-22.799,10.995-26.84,10.995c-4.042,0-11.479-1.295-11.479-9.379c0-8.085,8.085-12.611,13.582-14.874
		s17.948-5.174,23.442-6.469c5.338-1.294,13.258-3.718,13.258-3.718S723.292,412.127,713.429,423.122z"/>
	<path fill="#E00D1D" d="M295.953,289.569h46.89c0,0-30.882,96.042-38.644,120.132c-11.641,35.41-37.996,50.77-64.674,50.77
		c-10.186,0-17.139-1.779-17.139-1.779s13.258-10.992,20.049-20.532c6.953-9.539,16.815-24.416,20.534-47.375
		c3.881-23.121,2.75-44.14-16.978-66.938c-19.725-22.799-54.649-23.769-62.41-23.769c-7.762,0-36.865,0.324-71.789,20.858
		c-34.925,20.534-53.034,50.122-60.795,70.333c-7.76,20.051-9.377,42.2-1.616,61.279c7.76,19.08,28.78,45.758,76.801,45.758
		c36.703,0,66.292-18.109,66.292-18.109v9.215c0,0-36.542,24.254-82.623,24.254c-51.738,0-92.808-29.748-92.808-81.491
		c0-66.614,74.376-146.325,164.273-146.325c47.213,0,71.79,23.768,82.623,45.272c8.569,16.816,8.084,32.499,8.084,32.499
		L295.953,289.569"/>
	<path d="M441.796,460.471h-47.214c0,0,23.605-72.111,24.739-76.315c0.808-2.425,1.293-5.983-0.486-8.894
		c-2.585-4.204-6.79-6.144-9.537-6.144c-7.116,0-23.446,5.659-28.136,21.019c-1.939,6.307-22.312,70.333-22.312,70.333h-46.89
		l54.489-170.902h46.727l-20.211,64.189c0,0,17.947-20.373,48.183-20.373c18.435,0,27.972,11.157,30.234,22.637
		c1.458,7.276-0.806,14.714-2.424,19.563C465.401,388.036,441.796,460.471,441.796,460.471"/>
	<path d="M504.207,333.225h46.727c0,0-21.342,66.776-24.092,75.346c-2.584,8.568,1.942,16.008,9.702,16.008
		c7.598,0,22.962-5.335,28.619-22.635c5.658-17.303,21.826-68.88,21.826-68.88h47.376l-40.423,124.175h-46.405l5.337-17.14
		c0,0-19.4,20.211-47.375,20.211c-28.132,0-35.248-21.019-29.103-40.583C482.541,400.325,504.207,333.225,504.207,333.225"/>
	<polyline points="231.279,487.473 222.226,487.473 222.226,482.139 246.479,482.139 246.479,487.473 237.424,487.473 
		237.424,513.666 231.279,513.666 231.279,487.473 	"/>
	<polyline points="252.783,513.666 252.783,482.139 275.581,482.139 275.581,487.473 259.09,487.473 259.09,494.426 
		274.288,494.426 274.288,499.924 259.09,499.924 259.09,508.492 276.229,508.492 276.229,513.666 252.783,513.666 	"/>
	<polyline points="314.709,482.139 321.016,482.139 321.016,494.586 334.92,494.586 334.92,482.139 341.227,482.139 
		341.227,513.666 334.92,513.666 334.92,499.924 321.016,499.924 321.016,513.666 314.709,513.666 314.709,482.139 	"/>
	<polyline points="354.484,513.666 348.664,513.666 348.664,482.139 354.323,482.139 368.551,503.154 368.551,482.139 
		374.372,482.139 374.372,513.666 368.875,513.666 354.484,493.133 354.484,513.666 	"/>
	<path d="M384.72,509.787c-2.749-2.91-4.204-6.789-4.204-11.807c0-5.01,1.455-9.053,4.204-11.963
		c2.748-2.91,6.629-4.527,11.318-4.527c4.849,0,8.57,1.457,11.317,4.527c2.748,2.91,4.205,6.953,4.205,11.963
		c0,5.018-1.457,8.896-4.205,11.807c-2.747,2.91-6.63,4.363-11.317,4.363C391.349,514.15,387.468,512.697,384.72,509.787
		 M402.505,505.906c1.619-1.941,2.264-4.527,2.264-7.926c0-3.395-0.808-6.141-2.264-8.084c-1.618-1.936-3.719-2.906-6.467-2.906
		c-2.749,0-4.852,0.971-6.468,2.906c-1.617,1.943-2.264,4.529-2.264,8.084c0,3.398,0.81,5.984,2.264,7.926
		c1.616,1.938,3.719,2.75,6.468,2.75C398.786,508.656,401.051,507.684,402.505,505.906z"/>
	<path d="M442.767,509.787c-2.75-2.91-4.205-6.789-4.205-11.807c0-5.01,1.455-9.053,4.205-11.963
		c2.747-2.91,6.627-4.527,11.316-4.527c4.853,0,8.568,1.457,11.318,4.527c2.75,2.91,4.202,6.953,4.202,11.963
		c0,5.018-1.452,8.896-4.202,11.807s-6.629,4.363-11.318,4.363S445.514,512.697,442.767,509.787 M460.552,505.906
		c1.615-1.941,2.263-4.527,2.263-7.926c0-3.395-0.809-6.141-2.263-8.084c-1.616-1.936-3.719-2.906-6.469-2.906
		c-2.748,0-4.851,0.971-6.466,2.906c-1.619,1.943-2.267,4.529-2.267,8.084c0,3.398,0.811,5.984,2.267,7.926
		c1.454,1.938,3.718,2.75,6.466,2.75C456.833,508.656,459.096,507.684,460.552,505.906z"/>
	<polyline points="416.411,513.666 416.411,482.139 422.716,482.139 422.716,508.332 436.782,508.332 436.782,513.666 
		416.411,513.666 	"/>
	<polyline points="516.173,500.406 505.015,482.139 512.291,482.139 519.729,494.586 519.729,494.586 526.357,482.139 
		533.474,482.139 522.479,500.248 522.479,513.666 516.173,513.666 516.173,500.406 	"/>
	<path d="M302.745,502.35c-0.324,1.453-0.971,2.584-1.779,3.557c-1.454,1.938-3.557,2.75-6.306,2.75
		c-2.748,0-4.688-0.973-6.306-2.75c-1.455-1.941-2.264-4.527-2.264-7.926c0-3.395,0.809-6.141,2.264-8.084
		c1.456-1.936,3.558-2.906,6.306-2.906c2.749,0,4.689,0.971,6.306,2.906c0.485,0.648,0.971,1.459,1.293,2.426l6.307-1.453
		c-0.647-1.777-1.617-3.396-2.91-4.852c-2.749-2.91-6.306-4.527-10.995-4.527c-4.688,0-8.246,1.457-10.995,4.527
		c-2.748,2.91-4.042,6.953-4.042,11.963c0,5.018,1.294,8.896,4.042,11.807c2.749,2.91,6.308,4.363,10.995,4.363
		c4.528,0,8.246-1.453,10.995-4.363c1.455-1.615,2.425-3.395,3.234-5.498L302.745,502.35"/>
	<path d="M498.546,496.85h-8.405v5.174h8.405v4.205c-1.131,0.971-3.879,2.586-8.405,2.586c-6.632,0-9.379-5.012-9.379-10.834
		c0-5.818,2.91-11.152,9.379-11.152c6.627,0,7.759,5.334,7.759,5.334l5.173-1.135c0,0-1.291-9.375-12.932-9.375
		c-5.336,0-15.363,2.426-15.363,16.328c0,13.906,10.027,16.17,15.363,16.17c4.363,0,7.438-1.615,8.405-2.264v1.943h4.854v-16.98
		H498.546"/>
</g>
</svg>
