<?xml version="1.0" standalone="no"?>
<!DOCTYPE svg PUBLIC "-//W3C//DTD SVG 20010904//EN"
 "http://www.w3.org/TR/2001/REC-SVG-20010904/DTD/svg10.dtd">
<svg version="1.0" xmlns="http://www.w3.org/2000/svg"
 width="860.000000pt" height="467.000000pt" viewBox="0 0 860.000000 467.000000"
 preserveAspectRatio="xMidYMid meet">

<g transform="translate(0.000000,467.000000) scale(0.100000,-0.100000)"
fill="#000000" stroke="none">
<path d="M2290 3294 c-286 -34 -569 -163 -810 -369 -315 -269 -496 -682 -436
-992 55 -288 256 -483 567 -549 91 -20 305 -22 409 -4 140 24 315 86 448 158
57 31 62 36 62 68 0 34 -15 44 -35 25 -18 -16 -170 -74 -255 -97 -240 -67
-463 -50 -654 49 -523 271 -381 1039 264 1427 181 109 399 170 605 170 146 0
233 -19 350 -75 200 -96 312 -256 333 -470 14 -154 -13 -309 -78 -452 -51
-110 -88 -162 -188 -265 l-84 -86 47 -8 c72 -10 213 2 276 24 81 29 180 95
239 158 65 72 105 158 175 379 31 99 106 333 166 519 60 186 109 345 109 352
0 11 -38 14 -195 14 l-194 0 -80 -247 c-44 -137 -87 -274 -97 -305 -21 -67
-34 -75 -34 -19 0 58 -44 187 -87 258 -114 186 -294 298 -533 331 -133 19
-173 19 -290 6z"/>
<path d="M3965 3123 c-26 -82 -98 -308 -160 -503 -117 -365 -218 -683 -241
-758 l-13 -42 200 2 201 3 24 75 c13 41 56 176 95 300 86 275 113 322 214 370
62 30 120 26 156 -9 17 -18 29 -40 29 -56 0 -15 -47 -171 -105 -348 -58 -177
-105 -325 -105 -329 0 -5 90 -8 199 -8 l200 0 75 233 c41 127 98 304 126 392
61 189 66 249 29 321 -49 95 -134 135 -269 129 -125 -7 -237 -51 -336 -131
l-41 -34 84 267 c46 146 83 267 83 269 0 2 -90 4 -199 4 l-200 0 -46 -147z"/>
<path d="M2235 2903 c-178 -12 -338 -84 -451 -204 -53 -57 -89 -107 -83 -114
3 -2 85 -12 184 -23 l180 -19 51 47 c58 52 106 70 185 70 102 -1 149 -46 117
-109 -16 -31 -76 -48 -343 -101 -292 -59 -380 -93 -465 -180 -140 -143 -128
-343 23 -422 52 -27 225 -37 320 -18 76 14 180 57 241 98 l46 31 0 -44 c0 -73
5 -75 216 -75 l184 0 0 47 c0 32 32 146 100 358 113 350 119 389 76 480 -31
68 -101 130 -168 150 -72 21 -284 36 -413 28z m109 -600 c-11 -46 -53 -121
-89 -161 -43 -48 -109 -81 -191 -95 -55 -9 -70 -9 -92 4 -93 51 -41 159 98
204 50 17 254 72 273 74 4 1 4 -11 1 -26z"/>
<path d="M5186 2892 c-3 -5 -28 -80 -57 -168 -28 -87 -82 -256 -120 -374 -79
-242 -91 -315 -65 -384 21 -55 91 -121 142 -135 54 -15 179 -13 241 3 75 20
160 61 222 108 38 29 52 35 46 22 -21 -52 -34 -109 -27 -116 5 -5 93 -7 197
-6 l189 3 22 70 c13 39 88 271 168 516 80 246 146 452 146 458 0 8 -58 11
-198 11 l-198 0 -46 -142 c-26 -79 -73 -224 -105 -322 -51 -159 -63 -185 -101
-227 -42 -47 -124 -89 -173 -89 -37 0 -77 29 -88 63 -13 37 -18 16 128 473 39
122 71 227 71 233 0 13 -386 16 -394 3z"/>
<path d="M6812 2880 c-140 -37 -274 -127 -357 -241 -21 -27 -36 -52 -34 -54 2
-2 87 -12 189 -24 l185 -20 29 36 c61 74 192 105 286 67 35 -14 40 -20 40 -49
0 -56 -23 -72 -155 -104 -66 -16 -183 -41 -260 -56 -224 -41 -318 -80 -402
-164 -126 -127 -131 -314 -11 -401 61 -44 106 -53 248 -47 151 6 242 35 365
116 l30 20 0 -43 c0 -76 2 -77 214 -74 l186 3 -3 37 c-2 25 16 100 56 225 143
446 146 457 145 515 0 67 -38 153 -85 193 -83 70 -158 85 -413 84 -144 0 -195
-4 -253 -19z m258 -560 c0 -32 -48 -127 -86 -169 -57 -64 -133 -102 -218 -108
-59 -5 -66 -4 -90 20 -53 53 -22 132 69 173 28 13 110 39 181 58 150 40 144
39 144 26z"/>
<path d="M2780 1610 c0 -17 7 -20 40 -20 l40 0 0 -115 0 -115 25 0 c24 0 24 0
27 113 l3 112 38 3 c29 3 37 7 37 23 0 18 -8 19 -105 19 -98 0 -105 -1 -105
-20z"/>
<path d="M3042 1498 l3 -133 98 -3 97 -3 0 26 c0 24 -2 25 -70 25 l-70 0 0 35
0 35 66 0 c62 0 65 1 62 23 -3 20 -9 22 -65 25 -62 3 -63 3 -63 32 l0 30 70 0
c63 0 70 2 70 20 0 19 -7 20 -100 20 l-101 0 3 -132z"/>
<path d="M3320 1603 c-82 -74 -46 -225 58 -248 42 -9 109 21 127 56 14 26 14
29 -4 39 -28 15 -38 13 -44 -10 -12 -48 -93 -43 -116 7 -41 89 49 191 106 120
11 -14 26 -21 38 -19 37 7 38 20 7 51 -27 27 -37 31 -86 31 -47 0 -61 -4 -86
-27z"/>
<path d="M3570 1495 l0 -136 28 3 c26 3 27 6 30 61 l3 57 54 0 54 0 3 -57 c3
-55 4 -58 31 -61 l27 -3 0 136 0 136 -27 -3 c-26 -3 -28 -6 -29 -53 l-1 -50
-56 -3 -56 -3 -3 53 c-3 50 -5 53 -30 56 l-28 3 0 -136z"/>
<path d="M3860 1495 l0 -135 25 0 c24 0 24 2 27 86 l3 86 59 -86 c46 -67 64
-86 83 -86 l23 0 0 135 0 135 -25 0 c-24 0 -24 -2 -27 -85 l-3 -85 -58 85
c-46 68 -63 85 -82 85 l-25 0 0 -135z"/>
<path d="M4187 1610 c-33 -26 -61 -100 -53 -141 9 -48 42 -86 90 -104 40 -15
46 -15 82 0 52 21 69 38 84 84 18 55 6 107 -35 148 -29 29 -39 33 -88 33 -39
0 -61 -6 -80 -20z m128 -45 c49 -48 26 -145 -37 -160 -42 -11 -88 39 -88 95 0
49 34 90 75 90 14 0 37 -11 50 -25z"/>
<path d="M4440 1496 l0 -136 85 0 c84 0 85 0 85 25 0 24 -3 25 -61 25 l-60 0
2 108 2 107 -27 3 -26 3 0 -135z"/>
<path d="M4684 1612 c-61 -49 -71 -158 -20 -211 15 -15 44 -34 66 -41 34 -11
43 -10 83 9 53 26 77 67 77 133 0 48 -25 94 -62 114 -34 19 -119 17 -144 -4z
m123 -46 c23 -20 28 -32 28 -70 0 -56 -28 -89 -75 -89 -47 0 -75 33 -75 89 0
38 5 50 28 70 15 13 37 24 47 24 10 0 32 -11 47 -24z"/>
<path d="M4992 1614 c-33 -23 -52 -67 -52 -119 0 -85 51 -139 129 -136 20 1
53 2 74 2 l37 -1 0 75 0 75 -55 0 c-52 0 -55 -1 -55 -25 0 -22 4 -25 36 -25
28 0 35 -3 32 -17 -4 -24 -54 -46 -84 -39 -43 11 -64 41 -64 91 0 35 6 52 25
70 30 31 75 33 100 5 19 -21 50 -26 60 -10 4 6 -7 24 -24 40 -25 26 -37 30
-83 30 -32 0 -62 -6 -76 -16z"/>
<path d="M5200 1625 c0 -2 20 -38 45 -78 39 -65 45 -82 45 -131 0 -53 1 -56
25 -56 24 0 25 3 25 53 0 45 7 64 45 127 24 41 45 78 45 83 0 4 -11 7 -25 7
-19 0 -32 -12 -56 -51 -34 -55 -33 -55 -70 14 -16 30 -25 37 -49 37 -17 0 -30
-2 -30 -5z"/>
</g>
</svg>
