<?xml version="1.0" encoding="UTF-8"?>
<svg version="1.1" xmlns="http://www.w3.org/2000/svg" width="1519" height="382">
<path d="M0 0 C501.27 0 1002.54 0 1519 0 C1519 126.06 1519 252.12 1519 382 C1017.73 382 516.46 382 0 382 C0 255.94 0 129.88 0 0 Z " fill="#FEFDFD" transform="translate(0,0)"/>
<path d="M0 0 C136.79523525 -3.72277374 136.79523525 -3.72277374 189.60873413 14.02212524 C200.64897286 17.71540541 211.82264472 20.64704505 223.125 23.42578125 C224.0185425 23.64553682 224.912085 23.8652924 225.83270454 24.09170723 C230.28668548 25.18440495 234.74254696 26.26916939 239.19949341 27.34970093 C246.68836688 29.1679623 254.16281241 31.04379943 261.63801575 32.91730309 C265.14139518 33.79470098 268.64576203 34.6681304 272.15014648 35.54150391 C273.28612778 35.82474518 274.42210907 36.10798645 275.59251404 36.39981079 C276.38698441 36.59787323 277.18145477 36.79593567 278 37 C278 37.33 278 37.66 278 38 C266.67459677 38.83421391 255.35156795 39.33786687 244 39.625 C243.12623215 39.64725647 242.25246429 39.66951294 241.35221863 39.69244385 C194.98533766 40.7293952 151.6104039 28.64797719 107.35357666 15.9637146 C105.94876038 15.56338044 105.94876038 15.56338044 104.51556396 15.15495872 C102.78255633 14.65937548 101.05114987 14.15814159 99.32177734 13.65001869 C95.44805862 12.54179393 92.07612858 11.68789567 88 12 C87.67 13.32 87.34 14.64 87 16 C88.00393799 16.1973877 89.00787598 16.39477539 90.04223633 16.59814453 C105.34005982 19.67930291 120.44751473 23.52403926 135.57366943 27.34191895 C139.07126342 28.22396745 142.56984341 29.10208566 146.06835938 29.98046875 C150.83043226 31.17645181 155.59219833 32.37364073 160.35350227 33.57268143 C171.56540681 36.39617585 182.78209363 39.20046002 194 42 C192.63160841 45.55869955 191.1732889 48.328431 188.875 51.375 C177.46863029 67.45727282 170.33871049 86.1931834 165.69140625 105.26171875 C165 108 165 108 164 110 C157.82938041 108.65728054 151.68854738 107.22053634 145.5625 105.6875 C144.69125488 105.4694873 143.82000977 105.25147461 142.92236328 105.02685547 C136.65651653 103.44590266 130.42469351 101.76461682 124.2043457 100.01416016 C117.56603107 98.14742562 110.91011052 96.34978618 104.25 94.5625 C95.76711476 92.28436016 87.28672447 89.99766983 78.8125 87.6875 C77.92272461 87.44523682 77.03294922 87.20297363 76.11621094 86.95336914 C71.40150606 85.66659083 66.69599126 84.35351304 62 83 C62 84.65 62 86.3 62 88 C63.24652344 88.30292969 64.49304688 88.60585937 65.77734375 88.91796875 C74.06930137 90.9515976 82.32701089 93.02676361 90.5 95.5 C96.62649378 97.35310662 102.78234743 98.98106625 109 100.5 C116.80328047 102.40748524 124.50374559 104.54759406 132.19140625 106.875 C136.46066707 108.13607396 140.75775842 109.2209259 145.09375 110.2265625 C145.7228125 110.48179688 146.351875 110.73703125 147 111 C148.10709386 114.32128158 147.82173564 114.79209083 147 118 C146.91852402 120.17059032 146.89247058 122.34352851 146.90234375 124.515625 C146.90717773 126.39121094 146.90717773 126.39121094 146.91210938 128.3046875 C146.92048828 129.60664063 146.92886719 130.90859375 146.9375 132.25 C146.94426758 134.22613281 146.94426758 134.22613281 146.95117188 136.2421875 C146.96295684 139.49483741 146.97940989 142.74739584 147 146 C140.7456057 144.820429 134.61692875 143.44318156 128.5 141.6875 C126.92711137 141.24339027 125.35419388 140.79938276 123.78125 140.35546875 C122.59208984 140.01781494 122.59208984 140.01781494 121.37890625 139.67333984 C117.59000053 138.60090532 113.79484764 137.55117445 110 136.5 C108.49475434 136.08216569 106.98954603 135.66419681 105.484375 135.24609375 C104.74123047 135.03968262 103.99808594 134.83327148 103.23242188 134.62060547 C101.0349008 134.0097023 98.83771764 133.39759829 96.640625 132.78515625 C72.89506769 126.10886342 72.89506769 126.10886342 49 120 C48.74927734 121.25611084 48.49855469 122.51222168 48.24023438 123.80639648 C46.99228663 129.40652786 45.11208247 134.71121623 43.15625 140.09765625 C42.78649048 141.13135849 42.41673096 142.16506073 42.0357666 143.23008728 C40.86225996 146.50940805 39.68179039 149.78615625 38.5 153.0625 C37.31876677 156.34260477 36.13919281 159.62326674 34.9642334 162.90562439 C34.23568182 164.94048307 33.50353532 166.97405946 32.76721191 169.00611877 C30.87155569 174.29608076 29.25569986 179.52164623 28 185 C27.34 185 26.68 185 26 185 C25.67 186.98 25.34 188.96 25 191 C26.98 190.67 28.96 190.34 31 190 C31 186.04 31 182.08 31 178 C39.91 178 48.82 178 58 178 C58 179.65 58 181.3 58 183 C61.27131438 182.18942859 64.54196523 181.37621084 67.8125 180.5625 C69.2056543 180.21735352 69.2056543 180.21735352 70.62695312 179.86523438 C71.51962891 179.64287109 72.41230469 179.42050781 73.33203125 179.19140625 C74.15421143 178.98717041 74.9763916 178.78293457 75.82348633 178.57250977 C77.56752397 178.11375842 79.28917912 177.57027363 81 177 C81.33 174.03 81.66 171.06 82 168 C90.91 168 99.82 168 109 168 C109 174.6 109 181.2 109 188 C99.99770591 192.50114704 99.99770591 192.50114704 96.45166016 193.92285156 C95.65788971 194.24288147 94.86411926 194.56291138 94.04629517 194.89263916 C93.21890839 195.22197449 92.39152161 195.55130981 91.5390625 195.890625 C90.66728363 196.24010193 89.79550476 196.58957886 88.89730835 196.949646 C87.07105069 197.68068969 85.24410557 198.41001813 83.41650391 199.13769531 C80.61020583 200.2558949 77.80695795 201.38150337 75.00390625 202.5078125 C73.22413528 203.21919284 71.44419342 203.93014586 69.6640625 204.640625 C68.82453033 204.97805725 67.98499817 205.3154895 67.12002563 205.66314697 C66.34516815 205.97056824 65.57031067 206.2779895 64.77197266 206.59472656 C64.08994781 206.86690002 63.40792297 207.13907349 62.70523071 207.41949463 C61 208 61 208 59 208 C59 209.98 59 211.96 59 214 C59.57373856 213.7369104 60.14747711 213.4738208 60.73860168 213.20275879 C66.89040356 210.39783607 73.0793477 207.69004205 79.29418945 205.02783203 C81.58712318 204.03212186 83.87071576 203.01452868 86.14282227 201.97216797 C107.63027847 192.14742127 120.50105399 193 146 193 C146 222.04 146 251.08 146 281 C136.76 281 127.52 281 118 281 C118 254.93 118 228.86 118 202 C104.8 207.61 91.6 213.22 78 219 C83.61 219 89.22 219 95 219 C102.73065723 220.54613145 108.65076889 223.05327378 113.1875 229.75390625 C114.31529119 232.87159824 114.12632765 235.71548114 114 239 C111.06097651 239.13481759 108.12810441 239.23399416 105.1875 239.3125 C103.93743164 239.3753418 103.93743164 239.3753418 102.66210938 239.43945312 C100.34058232 239.48607013 98.27282729 239.48197528 96 239 C94.05078125 236.54296875 94.05078125 236.54296875 93 234 C89.85658007 232.42829004 86.44228549 232.76824217 83 233 C82.01 233.33 81.02 233.66 80 234 C80.60381699 236.49111268 80.60381699 236.49111268 82 239 C84.44634091 240.2313904 84.44634091 240.2313904 87.41796875 240.80859375 C88.50787109 241.08123047 89.59777344 241.35386719 90.72070312 241.63476562 C91.86474609 241.89966797 93.00878906 242.16457031 94.1875 242.4375 C109.05742959 245.8886871 109.05742959 245.8886871 114 252 C116.61257594 256.62513708 116.62784996 260.78099719 116 266 C114.3034981 271.56182727 111.1707493 276.15608788 106 279 C95.11858228 283.43847302 82.19878486 283.37879357 71 280 C65.92400185 277.69349338 62.37748757 275.20075407 60 270 C59.67 272.97 59.34 275.94 59 279 C49.76 279 40.52 279 31 279 C31 265.47 31 251.94 31 238 C23.41 238.33 15.82 238.66 8 239 C7.34 240.65 6.68 242.3 6 244 C12.6 244 19.2 244 26 244 C24.52524642 247.68688395 23.19972376 250.50427461 21.13671875 253.80078125 C20.30043945 255.14366211 20.30043945 255.14366211 19.44726562 256.51367188 C18.86654297 257.43728516 18.28582031 258.36089844 17.6875 259.3125 C17.11837891 260.22451172 16.54925781 261.13652344 15.96289062 262.07617188 C14.83842903 263.87711782 13.70170627 265.67047215 12.55224609 267.45556641 C10.97677734 269.92696238 10.97677734 269.92696238 9.88916016 272.41552734 C8.78227439 274.70854474 7.82151391 276.22067059 6 278 C-5.01602149 280.92333548 -18.62555542 279.12453846 -29.921875 279.09765625 C-32.23642954 279.09578838 -34.55098447 279.09436622 -36.86553955 279.09336853 C-42.92184565 279.08957241 -48.97812731 279.07976729 -55.03442383 279.06866455 C-61.22867502 279.0583876 -67.42293021 279.05385751 -73.6171875 279.04882812 C-85.74480233 279.03814211 -97.87239912 279.02110105 -110 279 C-110.34791092 278.00428089 -110.34791092 278.00428089 -110.70285034 276.98844624 C-113.40271339 269.26195656 -116.1064554 261.53682675 -118.8125 253.8125 C-119.03598995 253.17453239 -119.2594799 252.53656479 -119.48974228 251.87926483 C-126.18645025 232.766346 -132.95602308 213.68131257 -139.8125 194.625 C-145.82893862 177.901713 -151.77059156 161.15578054 -157.60202026 144.36709595 C-162.30480116 130.82910225 -167.06560523 117.31299273 -171.875 103.8125 C-172.20377136 102.88959167 -172.53254272 101.96668335 -172.87127686 101.01580811 C-174.21141099 97.25423094 -175.55160947 93.49267672 -176.89202881 89.73120117 C-181.60015004 76.51485036 -186.27781153 63.28769603 -190.95825195 50.06152344 C-191.65443477 48.09439224 -192.35064208 46.12726971 -193.046875 44.16015625 C-193.38365768 43.20861664 -193.72044037 42.25707703 -194.06742859 41.27670288 C-196.21091189 35.22271944 -198.36080922 29.17105207 -200.515625 23.12109375 C-201.04192095 21.64241897 -201.56820714 20.16374073 -202.09448242 18.68505859 C-203.04606423 16.01159467 -203.99962004 13.33884649 -204.9543457 10.66650391 C-205.36257568 9.51972168 -205.77080566 8.37293945 -206.19140625 7.19140625 C-206.54404541 6.20342041 -206.89668457 5.21543457 -207.26000977 4.19750977 C-208 2 -208 2 -208 1 C-176.65 1 -145.3 1 -113 1 C-110.88575105 5.93324754 -109.12927832 10.57074417 -107.6875 15.6875 C-107.25319927 17.19548402 -106.81827748 18.70328927 -106.3828125 20.2109375 C-106.04491699 21.3860791 -106.04491699 21.3860791 -105.70019531 22.58496094 C-104.51601319 26.66931574 -103.28858314 30.74056512 -102.0625 34.8125 C-101.55336745 36.50650502 -101.044253 38.20051547 -100.53515625 39.89453125 C-100.28137207 40.73838379 -100.02758789 41.58223633 -99.76611328 42.45166016 C-98.50880886 46.63386014 -97.25454032 50.81697021 -96 55 C-95.50001494 56.66667115 -95.00001493 58.33333781 -94.5 60 C-67.5 150 -67.5 150 -66.74902344 152.50463867 C-66.25329573 154.15614874 -65.75656572 155.8073583 -65.25878906 157.45825195 C-63.93466182 161.85475459 -62.63290677 166.25652095 -61.359375 170.66796875 C-61.08996094 171.59158203 -60.82054687 172.51519531 -60.54296875 173.46679688 C-60.02358812 175.24880973 -59.51032946 177.03262099 -59.00390625 178.81835938 C-58.39461662 180.89701322 -57.70469264 182.95172171 -57 185 C-56.34 185.33 -55.68 185.66 -55 186 C-54.87882813 184.97648438 -54.75765625 183.95296875 -54.6328125 182.8984375 C-54.03719091 179.22911437 -53.12689258 176.11537602 -51.875 172.625 C-49.5320356 165.8851907 -47.57733547 159.06679957 -45.6875 152.1875 C-42.34686792 140.06876549 -38.68717418 128.06431638 -34.95117188 116.0625 C-33.5355543 111.50461837 -32.13964565 106.9408587 -30.75 102.375 C-30.47800781 101.48151855 -30.20601562 100.58803711 -29.92578125 99.66748047 C-26.65613825 88.90127266 -23.43303193 78.12101814 -20.20385742 67.34262085 C-14.78338448 49.25035078 -14.78338448 49.25035078 -12.17675781 40.72143555 C-11.87092773 39.72023682 -11.56509766 38.71903809 -11.25 37.6875 C-11.03428722 36.98259336 -10.81857445 36.27768671 -10.59632492 35.55141926 C-8.28883054 27.99035808 -6.0386147 20.41281197 -3.796875 12.83203125 C-3.42997559 11.59247681 -3.06307617 10.35292236 -2.68505859 9.07580566 C-1.78968581 6.05064144 -0.89467347 3.0253711 0 0 Z " fill="#000000" transform="translate(222,1)"/>
<path d="M0 0 C4.98770939 3.23084013 8.44009854 7.48377982 11.6804418 12.39622384 C17.77921064 20.95479657 24.54529463 28.0826054 35.16730435 30.28814839 C49.38014776 32.4839282 63.9892866 32.04677961 78.32635595 31.89031597 C85.28036828 31.81916834 92.23192835 31.87889996 99.18581062 31.94094522 C112.17743061 32.053149 125.1672409 32.06179887 138.15917015 32.01280975 C151.31369317 31.96356264 164.46692919 31.96233002 177.62143707 32.01887703 C178.45416338 32.02242219 179.28688968 32.02596735 180.14485012 32.02961994 C183.53677232 32.04421151 186.92869286 32.05913207 190.32061176 32.07447241 C224.70582807 32.22982038 259.09008591 32.24383578 293.47556212 32.20217215 C298.22256743 32.19646453 302.96957293 32.19096569 307.71657872 32.18568206 C308.65952501 32.18463037 309.60247129 32.18357868 310.5739917 32.18249512 C331.49387545 32.16012537 352.41364594 32.1816716 373.33351056 32.2123263 C376.19872432 32.21652158 379.0639382 32.22061965 381.92915214 32.22468724 C389.6103483 32.23560292 397.29154432 32.24660997 404.97274008 32.25779804 C458.57873247 32.33535896 512.18461882 32.36871267 565.79064274 32.30944347 C566.80060979 32.30833508 567.81057685 32.30722669 568.85114896 32.30608472 C580.11270933 32.29368611 591.3742689 32.2806187 602.6358282 32.26729127 C603.65253193 32.26608858 604.66923566 32.26488589 605.71674859 32.26364676 C611.8841729 32.25634576 611.8841729 32.25634576 618.05159715 32.24899947 C683.07522064 32.17141491 748.09741114 32.22598013 813.12084961 32.39624023 C829.50448136 32.43906738 845.88811381 32.48152029 862.27175236 32.52167797 C863.78508331 32.52539323 863.78508331 32.52539323 865.3289866 32.52918355 C896.4376863 32.60506732 927.54626637 32.64510459 958.65505886 32.64742756 C959.63214289 32.64750345 960.60922691 32.64757934 961.61591954 32.64765753 C983.06810779 32.64894327 1004.5202855 32.64126454 1025.97246769 32.62542482 C1033.64891645 32.61981264 1041.32536557 32.61475204 1049.00181485 32.60991305 C1050.91141638 32.60869682 1052.82101788 32.60744443 1054.73061936 32.60615574 C1085.11938156 32.58586075 1115.50728228 32.64703566 1145.89586161 32.74798462 C1177.36587484 32.85174929 1208.83424311 32.84723823 1240.30419458 32.72083028 C1243.68904671 32.70764955 1247.07390025 32.69493141 1250.45875549 32.68257713 C1251.28941807 32.67950342 1252.12008064 32.67642971 1252.97591481 32.67326285 C1266.08798562 32.62734389 1279.19778999 32.67809011 1292.30954478 32.76981053 C1305.22762988 32.85810854 1318.14216008 32.84155766 1331.05997358 32.71625426 C1337.96205 32.65208485 1344.85541606 32.63538515 1351.75716556 32.74654546 C1383.48420779 34.15659038 1383.48420779 34.15659038 1410.68614445 20.36303166 C1415.65297056 15.47634434 1420.20347975 10.12319979 1424.08344215 4.3282615 C1425.75964487 1.96754497 1427.10181187 0.19434018 1430.01148935 -0.4352242 C1433.37872856 -0.51201597 1435.63436749 -0.22170883 1438.52929688 1.53369141 C1439.25181641 2.25733887 1439.97433594 2.98098633 1440.71875 3.7265625 C1441.98138672 4.96067871 1441.98138672 4.96067871 1443.26953125 6.21972656 C1444.17058594 7.1372168 1445.07164063 8.05470703 1446 9 C1447.00166291 9.98373476 1448.00564041 10.96511735 1449.01171875 11.94433594 C1451.66141645 14.53185699 1454.28489819 17.1440665 1456.8984375 19.76806641 C1458.52228362 21.39735835 1460.15152255 23.02112434 1461.78125 24.64453125 C1462.82323812 25.68717885 1463.8649167 26.7301359 1464.90625 27.7734375 C1466.30327148 29.17215088 1466.30327148 29.17215088 1467.72851562 30.59912109 C1470.53482659 33.56529285 1471.90996343 35.20467694 1472.375 39.3125 C1471.6495655 46.4459393 1466.27462808 51.02378335 1461.40625 55.859375 C1460.77771118 56.48982727 1460.14917236 57.12027954 1459.50158691 57.76983643 C1458.17945823 59.09331933 1456.85482763 60.41430713 1455.52783203 61.73291016 C1453.49927142 63.75072472 1451.48164704 65.7790352 1449.46484375 67.80859375 C1448.17512025 69.09699622 1446.88477679 70.38477847 1445.59375 71.671875 C1444.99260376 72.2770697 1444.39145752 72.8822644 1443.77209473 73.50579834 C1443.20470581 74.06688293 1442.63731689 74.62796753 1442.05273438 75.20605469 C1441.55849976 75.69869812 1441.06426514 76.19134155 1440.55505371 76.69891357 C1437.96427748 78.86657104 1435.54730681 79.88805088 1432.25 80.5625 C1423.12499704 78.98317256 1414.91212681 66.98023634 1408.68359375 60.66308594 C1407.29367409 59.25517685 1405.90079023 57.85019602 1404.5078125 56.4453125 C1403.68941895 55.61531738 1402.87102539 54.78532227 1402.02783203 53.93017578 C1398.09640254 50.18807591 1394.16613366 50.84819096 1389.01216567 50.84358281 C1387.58858424 50.83644798 1387.58858424 50.83644798 1386.13624359 50.82916902 C1382.91334815 50.81427084 1379.69047397 50.80655072 1376.46755409 50.79873943 C1374.1406694 50.78951479 1371.81378635 50.77986403 1369.48690504 50.76982263 C1363.71530997 50.74611063 1357.94371251 50.72713674 1352.172094 50.71016099 C1345.21516276 50.68947495 1338.25825511 50.66325297 1331.30134306 50.63699454 C1316.67579456 50.58205184 1302.05022722 50.53439462 1287.424647 50.48879779 C1275.85936594 50.45268896 1264.29409414 50.41430133 1252.72882462 50.37467766 C1171.06474963 50.09559022 1089.40056715 49.88180248 1007.73617554 49.72102356 C1006.77458944 49.71912829 1005.81300335 49.71723303 1004.82227828 49.71528033 C961.00788061 49.62901506 917.19347286 49.55059707 873.37904456 49.48164059 C854.92115443 49.45256388 836.46326608 49.42240852 818.00537873 49.3916232 C814.91377169 49.38647331 811.8221646 49.38135471 808.73055751 49.37623713 C761.13984088 49.29717571 713.5493325 49.19397881 665.9588623 49.019104 C664.93607911 49.01534571 663.91329591 49.01158741 662.85951928 49.00771523 C646.36975521 48.94696642 629.87999925 48.8840934 613.39024421 48.82095123 C565.87568632 48.63904363 518.36128604 48.471675 470.84641075 48.40243244 C469.86864674 48.40100058 468.89088272 48.39956872 467.88348949 48.39809346 C446.41567117 48.36692538 424.94785141 48.34340038 403.48001686 48.32709083 C394.84123419 48.32039749 386.20245254 48.31262768 377.56367111 48.30449867 C376.61821764 48.30363575 375.67276416 48.30277283 374.69866058 48.30188376 C344.27191787 48.27358612 313.84630678 48.15696469 283.42001201 47.9938345 C252.75370196 47.82984104 222.0885157 47.75382748 191.4217611 47.79870956 C187.17704263 47.80490132 182.93232348 47.81009677 178.687603 47.81469154 C177.85557152 47.81562852 177.02354005 47.8165655 176.1662955 47.81753088 C163.02921863 47.82974703 149.89449653 47.74809241 136.75804706 47.62656365 C123.81693377 47.50879726 110.87887767 47.49210738 97.93749749 47.58038505 C91.02217209 47.62483565 84.11404111 47.62618679 77.19957204 47.49759211 C45.73901612 45.91673387 45.73901612 45.91673387 18.64731468 59.28785869 C13.83137373 64.02218086 9.7396812 69.26240485 5.73848245 74.68824864 C3.80558451 77.20046549 2.344565 78.84837429 -0.58383255 80.13701465 C-4.09522611 80.59215578 -6.49341582 80.27518446 -9.60717773 78.58374023 C-10.31302002 77.85356689 -11.0188623 77.12339355 -11.74609375 76.37109375 C-12.99495361 75.12368408 -12.99495361 75.12368408 -14.26904297 73.85107422 C-15.17025879 72.91021973 -16.07147461 71.96936523 -17 71 C-18.03534059 69.9766862 -19.07472382 68.95744978 -20.11767578 67.94189453 C-22.89450538 65.23319336 -25.64288616 62.49792968 -28.38061523 59.74975586 C-30.08787174 58.03704724 -31.80053163 56.32986826 -33.51367188 54.62304688 C-34.60448818 53.53157123 -35.69499504 52.43978621 -36.78515625 51.34765625 C-37.55062523 50.58522362 -37.55062523 50.58522362 -38.33155823 49.80738831 C-41.58605897 46.53097503 -42.8594078 45.01929344 -43.5 40.375 C-43.29169428 31.17687286 -30.73173808 22.57900303 -24.52832031 16.39794922 C-22.7364494 14.61149032 -20.95005206 12.81968045 -19.1640625 11.02734375 C-18.02115426 9.88509546 -16.87793632 8.74315695 -15.734375 7.6015625 C-15.20309998 7.06826324 -14.67182495 6.53496399 -14.12445068 5.98550415 C-9.46408932 1.35465784 -6.76523022 -0.99814872 0 0 Z " fill="#AD0101" transform="translate(44,293)"/>
<path d="M0 0 C6.25183974 1.7243751 10.65900028 7.9488783 14.52285529 12.82299614 C22.58058774 22.66144451 29.39675247 29.53222871 42.51817007 31.06545794 C49.12569529 31.51228499 55.72076555 31.4896619 62.33870591 31.37584826 C66.52339872 31.32745205 70.70636123 31.40199972 74.89068652 31.45995331 C82.20599083 31.54460159 89.51813448 31.55212671 96.83374656 31.50750923 C107.71218945 31.44134175 118.58776966 31.49580418 129.46602129 31.57288159 C148.90035193 31.70641935 168.33335246 31.71945332 187.76801928 31.67947365 C204.77935033 31.64453174 221.79016201 31.64626425 238.80148757 31.68458366 C241.08671994 31.68958835 243.37195231 31.69458857 245.65718469 31.69958436 C249.10119203 31.70716967 252.54519927 31.7147926 255.9892063 31.72252049 C287.99357991 31.79354067 319.99778058 31.82314003 352.00219215 31.7645092 C353.81043513 31.76120105 353.81043513 31.76120105 355.65520827 31.75782607 C365.44353855 31.73966035 375.23186656 31.72032048 385.02019442 31.70090088 C423.18939477 31.62607186 461.35654468 31.67743017 499.52549041 31.83125114 C542.4502953 32.00393225 585.37387764 32.0871537 628.29903937 32.03528786 C632.88012661 32.03002969 637.46121407 32.02504481 642.04230178 32.02021599 C643.73415675 32.01833186 643.73415675 32.01833186 645.46019061 32.01640967 C662.4522558 31.9992136 679.44321352 32.05088827 696.43504012 32.13740349 C715.77148296 32.23565583 735.10528437 32.23808211 754.44164094 32.11513579 C765.24944471 32.04916224 776.05113214 32.05652047 786.85854865 32.17248245 C794.09670785 32.24256584 801.33022184 32.21279564 808.56790229 32.10508792 C812.68269346 32.04655137 816.78558039 32.0279877 820.89974882 32.13192177 C836.63658671 32.50305652 848.35329039 31.74011185 860.30003479 20.64160515 C865.60192903 15.46300075 870.48125718 9.92168451 875.16046792 4.17909491 C877.94856533 0.90708116 878.65137358 0.73350675 882.94834197 0.14082146 C892.29301574 0.36156178 901.13577373 13.30115437 907.40757049 19.59467888 C909.2774395 21.46996709 911.15267096 23.33977611 913.0284201 25.20918083 C914.21949658 26.40091711 915.41026338 27.59296301 916.60068572 28.78535271 C917.16102004 29.3436628 917.72135436 29.90197289 918.29866851 30.47720146 C921.43523874 33.63298226 923.11348137 35.32919271 923.82334197 39.76582146 C922.62277114 49.07024539 910.85378298 57.26313791 904.36948455 63.72504997 C902.49419634 65.59491899 900.62438732 67.47015045 898.7549826 69.34589958 C897.56324632 70.53697607 896.37120042 71.72774286 895.17881072 72.91816521 C894.62050063 73.47849953 894.06219054 74.03883385 893.48696197 74.61614799 C890.08191883 78.0004632 888.50960114 79.4771995 883.69834197 80.14082146 C878.02981258 80.0317125 875.12285448 76.51592175 871.32334197 72.64082146 C869.83287181 70.85701636 868.36151668 69.05712101 866.90640045 67.24436104 C858.58084135 57.18835802 851.53411913 49.74529968 838.03843945 48.1005485 C831.44531356 47.63525691 824.86622522 47.65746226 818.26179161 47.7773271 C814.08799948 47.8283368 809.9160927 47.75041997 805.74269748 47.68997872 C798.44806076 47.60177754 791.15690785 47.59427069 783.86194099 47.64146996 C773.01424569 47.7114656 762.16969196 47.65499524 751.32219812 47.57488929 C731.94240566 47.43612817 712.56408366 47.42349655 693.18393147 47.46637614 C676.22030322 47.50384364 659.25724724 47.50274971 642.29362167 47.46324348 C640.01442459 47.45808432 637.73522751 47.45292932 635.45603041 47.44777844 C632.02108094 47.43995515 628.58613158 47.432091 625.15118246 47.42411542 C593.2328957 47.35082549 561.31479958 47.32082254 529.39647544 47.38319016 C528.19433708 47.38553638 526.99219871 47.38788261 525.75363191 47.39029994 C515.99268185 47.40962328 506.23173436 47.43018648 496.47078702 47.45083193 C458.40876367 47.53040398 420.3489658 47.47862432 382.28720916 47.32002068 C339.47882371 47.14196157 296.67176158 47.05664891 253.86299682 47.11159623 C249.29398376 47.11717505 244.72497045 47.12247278 240.15595687 47.12761116 C239.03103378 47.12894632 237.90611069 47.13028149 236.74709902 47.13165711 C219.80305731 47.14998482 202.86020523 47.09700408 185.91641677 47.00794411 C166.63374939 46.90680526 147.35393552 46.90516309 128.07137077 47.03349255 C118.23941934 47.09633219 108.41241667 47.11525029 98.58072532 47.00698662 C55.05459947 44.22287091 55.05459947 44.22287091 17.16008735 60.85473645 C12.76889337 65.48535971 9.04251322 70.47000475 5.88564754 76.01296723 C4.32334197 78.64082146 4.32334197 78.64082146 2.32334197 79.64082146 C-1.73377965 80.41502198 -5.22585085 80.51640028 -8.83196198 78.34007072 C-11.08150796 76.4259014 -13.14944004 74.41559905 -15.21181428 72.30097771 C-15.97594132 71.5454612 -16.74006837 70.78994469 -17.52735078 70.01153374 C-19.1323913 68.41260123 -20.72618769 66.80231153 -22.30922639 65.18159294 C-24.73204193 62.71057912 -27.19912807 60.29126577 -29.6747049 57.87324333 C-31.23163512 56.31036555 -32.78577101 54.74469804 -34.33681428 53.17597771 C-35.07416306 52.456847 -35.81151185 51.73771629 -36.57120454 50.99679375 C-39.81558342 47.61538289 -42.15230188 44.92064355 -42.5941385 40.14082146 C-42.05728746 34.33312618 -38.34219277 31.01208063 -34.33681428 27.10566521 C-33.58129777 26.34153816 -32.82578126 25.57741112 -32.04737031 24.79012871 C-30.4484378 23.18508818 -28.8381481 21.59129179 -27.21742951 20.0082531 C-24.74641569 17.58543756 -22.32710234 15.11835141 -19.9090799 12.64277458 C-18.34620212 11.08584436 -16.78053461 9.53170847 -15.21181428 7.98066521 C-14.49268357 7.24331642 -13.77355286 6.50596764 -13.03263032 5.74627495 C-9.01221215 1.88878458 -5.78062038 -0.68890984 0 0 Z " fill="#AE0404" transform="translate(592.6766580268741,53.35917854309082)"/>
<path d="M0 0 C19.8 0 39.6 0 60 0 C63.33592607 10.67496341 66.43199889 21.22008867 69.0625 32.0625 C69.71785431 34.74142728 70.37596307 37.4196712 71.03515625 40.09765625 C71.19543304 40.74976578 71.35570984 41.40187531 71.52084351 42.07374573 C74.08490541 52.45408681 76.82808649 62.78739968 80 73 C82.41749293 70.58250707 82.61528759 69.13603471 83.3671875 65.828125 C83.61339844 64.76980469 83.85960937 63.71148437 84.11328125 62.62109375 C84.36464844 61.50863281 84.61601563 60.39617187 84.875 59.25 C86.68521905 51.32909443 88.68237357 43.5149863 90.95166016 35.71289062 C92.87783387 28.89098801 94.54997697 22.00628509 96.25 15.125 C97.4875 10.13375 98.725 5.1425 100 0 C119.14 0 138.28 0 158 0 C158 43.56 158 87.12 158 132 C144.14 132 130.28 132 116 132 C115.95760881 124.48498427 115.91759697 116.97042246 115.89649963 109.45539093 C115.88610548 105.95287254 115.87231757 102.45045703 115.84912109 98.94799805 C115.73469543 81.21127347 116.20403221 63.66316669 118 46 C117.82534714 46.70763489 117.65069427 47.41526978 117.4707489 48.14434814 C114.36850603 60.70687556 111.17004325 73.22245229 107.65185547 85.67480469 C106.43181746 90.02673051 105.24892051 94.38881316 104.0625 98.75 C103.8154834 99.65717773 103.5684668 100.56435547 103.31396484 101.49902344 C102.80667154 103.3622688 102.29951199 105.22555058 101.79248047 107.08886719 C100.40525254 112.18477165 99.01490607 117.27982549 97.625 122.375 C96.75875 125.55125 95.8925 128.7275 95 132 C83.78 132 72.56 132 61 132 C57.6286293 121.88588791 57.6286293 121.88588791 56.31640625 116.70703125 C55.88799438 115.03096802 55.88799438 115.03096802 55.45092773 113.32104492 C55.15774658 112.1632251 54.86456543 111.00540527 54.5625 109.8125 C52.484065 101.69853665 50.37493965 93.61057657 48.02734375 85.5703125 C44.15261332 72.1045193 40.58668222 58.54499992 37 45 C37.06058594 45.59425781 37.12117188 46.18851563 37.18359375 46.80078125 C37.26738281 47.62964844 37.35117188 48.45851562 37.4375 49.3125 C37.51871094 50.11300781 37.59992188 50.91351563 37.68359375 51.73828125 C37.84021484 53.35283203 37.84021484 53.35283203 38 55 C38.12187683 56.07882446 38.12187683 56.07882446 38.24621582 57.17944336 C39.09545608 65.29199404 39.12859399 73.36610456 39.09765625 81.51171875 C39.09578648 82.97573294 39.09436523 84.43974777 39.09336853 85.90376282 C39.08958729 89.71932769 39.07979562 93.53485327 39.06866455 97.35040283 C39.05653581 101.94863829 39.05202724 106.54688703 39.04621124 111.14513397 C39.03658062 118.09678314 39.01739363 125.04834643 39 132 C26.13 132 13.26 132 0 132 C0 88.44 0 44.88 0 0 Z " fill="#010101" transform="translate(1139,149)"/>
<path d="M0 0 C14.80875 -0.061875 29.6175 -0.12375 44.875 -0.1875 C51.86469971 -0.22846802 51.86469971 -0.22846802 58.99560547 -0.27026367 C64.72680664 -0.28381348 64.72680664 -0.28381348 67.41775513 -0.28633118 C69.27983761 -0.29090981 71.14191172 -0.30140223 73.00393677 -0.31672668 C75.83985626 -0.33888068 78.67523664 -0.34171157 81.51123047 -0.34057617 C82.73604032 -0.35676766 82.73604032 -0.35676766 83.9855938 -0.37328625 C95.69853414 -0.31105955 106.08630411 4.31815316 114.75 12.125 C123.03503099 20.90085036 125.50424092 31.38356654 125.27734375 43.03515625 C124.49046312 54.28422445 119.75819764 62.8564231 111.5 70.3125 C108.16643473 73.0251795 104.44827636 76 100 76 C104.90127309 86.06202534 110.09371213 95.93379209 115.47851562 105.74536133 C118.77297699 111.7483106 122.03892608 117.76448945 125.25 123.8125 C125.632771 124.52978271 126.01554199 125.24706543 126.40991211 125.98608398 C129 130.87954983 129 130.87954983 129 132 C113.16 132 97.32 132 81 132 C73.1622153 116.4078113 65.42663964 100.792087 58 85 C52.72 84.67 47.44 84.34 42 84 C42 99.84 42 115.68 42 132 C28.14 132 14.28 132 0 132 C0 88.44 0 44.88 0 0 Z " fill="#000000" transform="translate(995,149)"/>
<path d="M0 0 C37.95 0 75.9 0 115 0 C115 10.56 115 21.12 115 32 C91.24 32 67.48 32 43 32 C43 37.94 43 43.88 43 50 C63.13 50 83.26 50 104 50 C104 59.9 104 69.8 104 80 C83.87 80 63.74 80 43 80 C43 86.6 43 93.2 43 100 C67.09 100 91.18 100 116 100 C116 110.56 116 121.12 116 132 C77.72 132 39.44 132 0 132 C0 88.44 0 44.88 0 0 Z " fill="#020202" transform="translate(1321,149)"/>
<path d="M0 0 C16.5 0 33 0 50 0 C58.01719078 20.61563344 58.01719078 20.61563344 60.6640625 28.03515625 C61.30777171 29.82462862 61.95148956 31.61409787 62.59521484 33.40356445 C63.09030548 34.78398422 63.09030548 34.78398422 63.59539795 36.19229126 C68.88897209 50.94912159 74.23667137 65.68538648 79.671875 80.390625 C79.90972591 81.03442549 80.14757683 81.67822598 80.39263535 82.34153557 C82.51451297 88.08464088 84.63729021 93.82740872 86.76885986 99.56692505 C88.08536131 103.11271524 89.39833532 106.65979614 90.7109375 110.20703125 C91.10085876 111.25308533 91.49078003 112.2991394 91.89251709 113.37689209 C92.25846985 114.36731506 92.62442261 115.35773804 93.00146484 116.37817383 C93.31659027 117.22680496 93.6317157 118.0754361 93.95639038 118.94978333 C95.43064311 123.2586649 96.69138727 127.63795756 98 132 C83.15 132 68.3 132 53 132 C52.01 129.03 51.02 126.06 50 123 C49.4121875 121.63875 49.4121875 121.63875 48.8125 120.25 C48 118 48 118 48 113 C32.49 113 16.98 113 1 113 C0.01 116.96 -0.98 120.92 -2 125 C-2.66 127.31 -3.32 129.62 -4 132 C-18.52 132 -33.04 132 -48 132 C-41.12314841 111.36944524 -41.12314841 111.36944524 -37.453125 101.53125 C-37.04389801 100.42598969 -36.63467102 99.32072937 -36.21304321 98.18197632 C-35.34270208 95.83148328 -34.47119401 93.48142203 -33.59857178 91.1317749 C-31.27498871 84.8742432 -28.96058017 78.6133284 -26.6484375 72.3515625 C-26.4135323 71.71558262 -26.17862709 71.07960274 -25.93660355 70.42435074 C-20.05282947 54.48789608 -14.31210461 38.50017157 -8.59863281 22.50195312 C-8.24191498 21.5054776 -7.88519714 20.50900208 -7.51766968 19.48233032 C-6.85916773 17.64251081 -6.20245711 15.80204861 -5.54800415 13.96078491 C-5.25485321 13.14211945 -4.96170227 12.32345398 -4.65966797 11.47998047 C-4.40990204 10.7792038 -4.16013611 10.07842712 -3.90280151 9.35641479 C-2.69381709 6.20082773 -1.33115427 3.10602662 0 0 Z " fill="#010101" transform="translate(883,149)"/>
<path d="M0 0 C16.5 0 33 0 50 0 C52.701875 7.404375 55.40375 14.80875 58.1875 22.4375 C63.66694595 37.44692125 69.15926192 52.45133457 74.69140625 67.44140625 C74.92493994 68.07435545 75.15847363 68.70730465 75.39908409 69.35943413 C77.88969295 76.10975955 80.38279182 82.85915681 82.87963867 89.60717773 C86.67514369 99.87553819 90.45182519 110.15030607 94.109375 120.46875 C94.40587952 121.29588501 94.70238403 122.12302002 95.00787354 122.97521973 C96.10462433 126.09829819 97 128.66435189 97 132 C82.48 132 67.96 132 53 132 C49 122 49 122 47 114 C31.82 114 16.64 114 1 114 C-0.65 119.61 -2.3 125.22 -4 131 C-5 132 -5 132 -6.75270081 132.12025452 C-7.51437057 132.11803391 -8.27604034 132.11581329 -9.06079102 132.11352539 C-9.92160782 132.11344986 -10.78242462 132.11337433 -11.66932678 132.11329651 C-12.60473801 132.10813522 -13.54014923 132.10297394 -14.50390625 132.09765625 C-15.45692123 132.0962413 -16.40993622 132.09482635 -17.39183044 132.09336853 C-20.44875165 132.08775152 -23.50560077 132.07519616 -26.5625 132.0625 C-28.62955624 132.05748719 -30.69661362 132.05292391 -32.76367188 132.04882812 C-37.84247588 132.03777656 -42.9212257 132.02050055 -48 132 C-45.89557261 124.67099346 -43.45951026 117.50358899 -40.8515625 110.33984375 C-40.44629333 109.22016205 -40.04102417 108.10048035 -39.62347412 106.9468689 C-38.52240732 103.90746085 -37.41876115 100.86900698 -36.313591 97.83108902 C-35.62180602 95.92871672 -34.93100979 94.02598829 -34.24053955 92.12313843 C-27.22681156 72.79523992 -20.1645589 53.4851069 -13.06505585 34.18855667 C-12.37752698 32.3193701 -11.69062389 30.44995338 -11.00372314 28.58053589 C-9.72074769 25.0906658 -8.43508587 21.60179863 -7.1484375 18.11328125 C-6.77120544 17.08665375 -6.39397339 16.06002625 -6.00531006 15.00228882 C-5.65212708 14.04674103 -5.29894409 13.09119324 -4.93505859 12.10668945 C-4.63199799 11.28457474 -4.32893738 10.46246002 -4.01669312 9.61543274 C-2.75816665 6.37788616 -1.36830105 3.19270245 0 0 Z " fill="#010101" transform="translate(610,149)"/>
<path d="M0 0 C1.25709778 0.00085602 2.51419556 0.00171204 3.80938721 0.00259399 C19.20627296 0.01386805 34.6031372 0.0337677 50 0.0625 C49.42829314 4.8830774 48.80216607 9.28956759 47.328125 13.93359375 C46.99296875 15.00416016 46.6578125 16.07472656 46.3125 17.17773438 C45.961875 18.27408203 45.61125 19.37042969 45.25 20.5 C44.56646306 22.66497181 43.88419447 24.83034444 43.203125 26.99609375 C42.84541016 28.13288574 42.48769531 29.26967773 42.11914062 30.44091797 C40.93442047 34.27471787 39.79631891 38.120883 38.671875 41.97265625 C35.24662579 53.70006112 31.65388163 65.37655479 28.08398438 77.06054688 C24.94564311 87.33575843 21.82070944 97.61301394 18.80700684 107.92553711 C16.22181246 116.75321088 13.50426896 125.54056113 10.80224609 134.33300781 C7.85097032 143.94171647 4.95307472 153.56344945 2.12939453 163.21044922 C0.67206187 168.18896893 -0.81720162 173.1577687 -2.3125 178.125 C-2.57611328 179.00220703 -2.83972656 179.87941406 -3.11132812 180.78320312 C-3.74044168 182.8764355 -4.37014884 184.96948945 -5 187.0625 C-5.99 186.7325 -6.98 186.4025 -8 186.0625 C-8.90380859 184.21508789 -8.90380859 184.21508789 -9.6484375 181.78515625 C-9.92880859 180.88861328 -10.20917969 179.99207031 -10.49804688 179.06835938 C-10.93213867 177.61139648 -10.93213867 177.61139648 -11.375 176.125 C-11.68244141 175.12662109 -11.98988281 174.12824219 -12.30664062 173.09960938 C-14.3528537 166.39708679 -16.25836342 159.65986913 -18.08544922 152.89477539 C-19.72212047 146.89431115 -21.58738353 140.98016807 -23.5 135.0625 C-25.87555632 127.71248814 -28.07415276 120.34764042 -30.0859375 112.890625 C-31.72387438 106.89194708 -33.58780245 100.97887192 -35.5 95.0625 C-37.87555632 87.71248814 -40.07415276 80.34764042 -42.0859375 72.890625 C-43.72387438 66.89194708 -45.58780245 60.97887192 -47.5 55.0625 C-49.87173516 47.72431086 -52.0712477 40.37224104 -54.07495117 32.92578125 C-56.07380998 25.5919691 -58.40577822 18.36914412 -60.765625 11.14453125 C-61.05566406 10.25121094 -61.34570312 9.35789062 -61.64453125 8.4375 C-61.90596924 7.64085937 -62.16740723 6.84421875 -62.43676758 6.0234375 C-63 4.0625 -63 4.0625 -63 2.0625 C-94.35 2.0625 -125.7 2.0625 -158 2.0625 C-158 1.7325 -158 1.4025 -158 1.0625 C-144.33348231 0.88302669 -130.6668132 0.71783591 -117 0.5625 C-115.43348694 0.54468412 -115.43348694 0.54468412 -113.83532715 0.52650833 C-75.88983887 0.09934085 -37.94773627 -0.02602725 0 0 Z " fill="#FCFCFC" transform="translate(172,-0.0625)"/>
<path d="M0 0 C8.91 0 17.82 0 27 0 C27 6.6 27 13.2 27 20 C17.99770591 24.50114704 17.99770591 24.50114704 14.45166016 25.92285156 C13.26100449 26.40289642 13.26100449 26.40289642 12.04629517 26.89263916 C10.805215 27.38664215 10.805215 27.38664215 9.5390625 27.890625 C8.66728363 28.24010193 7.79550476 28.58957886 6.89730835 28.949646 C5.07105069 29.68068969 3.24410557 30.41001813 1.41650391 31.13769531 C-1.38979417 32.2558949 -4.19304205 33.38150337 -6.99609375 34.5078125 C-8.77586472 35.21919284 -10.55580658 35.93014586 -12.3359375 36.640625 C-13.59523575 37.14677338 -13.59523575 37.14677338 -14.87997437 37.66314697 C-15.65483185 37.97056824 -16.42968933 38.2779895 -17.22802734 38.59472656 C-17.91005219 38.86690002 -18.59207703 39.13907349 -19.29476929 39.41949463 C-21 40 -21 40 -23 40 C-23 41.98 -23 43.96 -23 46 C-22.42626144 45.7369104 -21.85252289 45.4738208 -21.26139832 45.20275879 C-15.10959644 42.39783607 -8.9206523 39.69004205 -2.70581055 37.02783203 C-0.41287682 36.03212186 1.87071576 35.01452868 4.14282227 33.97216797 C25.63027847 24.14742127 38.50105399 25 64 25 C64 54.04 64 83.08 64 113 C54.76 113 45.52 113 36 113 C36 86.93 36 60.86 36 34 C22.8 39.61 9.6 45.22 -4 51 C1.61 51 7.22 51 13 51 C20.73065723 52.54613145 26.65076889 55.05327378 31.1875 61.75390625 C32.31529119 64.87159824 32.12632765 67.71548114 32 71 C29.06097651 71.13481759 26.12810441 71.23399416 23.1875 71.3125 C22.35412109 71.35439453 21.52074219 71.39628906 20.66210938 71.43945312 C18.34058232 71.48607013 16.27282729 71.48197528 14 71 C12.05078125 68.54296875 12.05078125 68.54296875 11 66 C7.85658007 64.42829004 4.44228549 64.76824217 1 65 C-0.485 65.495 -0.485 65.495 -2 66 C-1.39618301 68.49111268 -1.39618301 68.49111268 0 71 C2.44634091 72.2313904 2.44634091 72.2313904 5.41796875 72.80859375 C6.50787109 73.08123047 7.59777344 73.35386719 8.72070312 73.63476562 C9.86474609 73.89966797 11.00878906 74.16457031 12.1875 74.4375 C27.05742959 77.8886871 27.05742959 77.8886871 32 84 C34.61257594 88.62513708 34.62784996 92.78099719 34 98 C32.3034981 103.56182727 29.1707493 108.15608788 24 111 C13.11858228 115.43847302 0.19878486 115.37879357 -11 112 C-16.07599815 109.69349338 -19.62251243 107.20075407 -22 102 C-22.33 104.97 -22.66 107.94 -23 111 C-32.24 111 -41.48 111 -51 111 C-51 97.47 -51 83.94 -51 70 C-58.59 70 -66.18 70 -74 70 C-72.15047231 63.83490771 -70.2889965 57.75079022 -68.15234375 51.69140625 C-67.76629723 50.5913047 -67.76629723 50.5913047 -67.37245178 49.46897888 C-66.83503763 47.94023922 -66.29641124 46.41192518 -65.7565918 44.8840332 C-64.93124928 42.54478373 -64.11295754 40.20314134 -63.29492188 37.86132812 C-62.76865402 36.3670378 -62.24197626 34.87289177 -61.71484375 33.37890625 C-61.47209213 32.68205215 -61.22934052 31.98519806 -60.97923279 31.26722717 C-59.89058877 28.20465904 -58.81471871 25.72207806 -57 23 C-53.875 22.3125 -53.875 22.3125 -51 22 C-51 18.04 -51 14.08 -51 10 C-42.09 10 -33.18 10 -24 10 C-24 11.65 -24 13.3 -24 15 C-20.72868562 14.18942859 -17.45803477 13.37621084 -14.1875 12.5625 C-13.25873047 12.33240234 -12.32996094 12.10230469 -11.37304688 11.86523438 C-10.48037109 11.64287109 -9.58769531 11.42050781 -8.66796875 11.19140625 C-7.43469849 10.88505249 -7.43469849 10.88505249 -6.17651367 10.57250977 C-4.43247603 10.11375842 -2.71082088 9.57027363 -1 9 C-0.67 6.03 -0.34 3.06 0 0 Z " fill="#AA0101" transform="translate(304,169)"/>
<path d="M0 0 C1.68956241 0.02615725 3.37923203 0.0460643 5.06893921 0.06002808 C9.48761298 0.1131447 13.89970132 0.25030431 18.3157959 0.40588379 C22.83332203 0.54987599 27.3519277 0.61320127 31.87109375 0.68359375 C40.71641433 0.83313007 49.55687567 1.07160382 58.3984375 1.3671875 C58.80412907 8.87077701 59.09996481 16.37316693 59.27924442 23.88542843 C59.36560488 27.38027741 59.48092433 30.86732746 59.6809082 34.35766602 C61.1862093 62.88546576 53.30544134 76.65029589 41.3984375 105.3671875 C6.7484375 105.3671875 -27.9015625 105.3671875 -63.6015625 105.3671875 C-66.23650725 98.77982564 -66.75263635 92.91929006 -66.7890625 85.8671875 C-66.80324219 84.619375 -66.81742187 83.3715625 -66.83203125 82.0859375 C-66.6015625 78.3671875 -66.6015625 78.3671875 -64.6015625 71.3671875 C-59.6515625 71.6971875 -54.7015625 72.0271875 -49.6015625 72.3671875 C-49.26125 70.92730469 -48.9209375 69.48742187 -48.5703125 68.00390625 C-45.36697806 54.86640815 -41.43149964 42.57500913 -35.6015625 30.3671875 C-35.27929688 29.69220215 -34.95703125 29.0172168 -34.625 28.32177734 C-32.80170759 24.57606025 -30.82434146 20.96320909 -28.73443222 17.35697269 C-28.00715634 16.07957711 -27.2977934 14.79171958 -26.6116066 13.49178982 C-19.92209057 0.94557084 -13.7015272 -0.6271752 0 0 Z " fill="#AE0404" transform="translate(439.6015625,43.6328125)"/>
<path d="M0 0 C14.19 0 28.38 0 43 0 C43 32.34 43 64.68 43 98 C65.44 98 87.88 98 111 98 C111 109.22 111 120.44 111 132 C74.37 132 37.74 132 0 132 C0 88.44 0 44.88 0 0 Z " fill="#030303" transform="translate(721,149)"/>
<path d="M0 0 C6.147892 1.536973 12.295784 3.073946 18.44367599 4.610919 C19.47702513 4.86925628 19.47702513 4.86925628 20.53125 5.1328125 C22.70251465 5.67562866 24.8737793 6.21844482 27.04504395 6.76126099 C27.77267944 6.94316986 28.50031494 7.12507874 29.25 7.3125 C29.97247925 7.49311981 30.6949585 7.67373962 31.43933105 7.85983276 C32.52220398 8.13055099 32.52220398 8.13055099 33.62695312 8.40673828 C37.29196676 9.32299169 40.95698039 10.2392451 44.62199402 11.1554985 C45.35001724 11.33750431 46.07804047 11.51951012 46.828125 11.70703125 C50.48186493 12.62046623 54.13560486 13.53390121 57.78934479 14.4473362 C58.83830051 14.70957513 58.83830051 14.70957513 59.90844727 14.97711182 C61.27229818 15.31807454 62.63614909 15.65903727 64 16 C65.8706311 16.46765778 65.8706311 16.46765778 67.77905273 16.94476318 C71.20166016 17.80041504 74.62426758 18.65606689 78.046875 19.51171875 C79.60791962 19.9019799 79.60791962 19.9019799 81.20050049 20.30012512 C83.18554688 20.79638672 85.17059326 21.29264832 87.15563965 21.78890991 C88.56359802 22.14089951 88.56359802 22.14089951 90 22.5 C91.86621094 22.96655273 93.73242188 23.43310547 95.59863281 23.8996582 C96.88123993 24.22030998 96.88123993 24.22030998 98.1897583 24.54743958 C101.45983887 25.36495972 104.72991943 26.18247986 108 27 C106.63160841 30.55869955 105.1732889 33.328431 102.875 36.375 C91.46863029 52.45727282 84.33871049 71.1931834 79.69140625 90.26171875 C79 93 79 93 78 95 C71.82938041 93.65728054 65.68854738 92.22053634 59.5625 90.6875 C58.69125488 90.4694873 57.82000977 90.25147461 56.92236328 90.02685547 C50.65651653 88.44590266 44.42469351 86.76461682 38.2043457 85.01416016 C31.56602955 83.14742519 24.91007872 81.34990824 18.25 79.5625 C9.74812101 77.27775249 1.24635283 74.99272872 -7.25 72.6875 C-8.59723145 72.32410522 -8.59723145 72.32410522 -9.97167969 71.95336914 C-14.36355043 70.75930294 -18.69889078 69.49695468 -23 68 C-20.87229461 59.65535492 -18.20909085 51.57043887 -15.33203125 43.45703125 C-14.88757634 42.19491765 -14.44346548 40.93268285 -13.99967957 39.67033386 C-12.84411759 36.38623082 -11.68396418 33.103769 -10.52276611 29.82165527 C-9.33330143 26.45697378 -8.14829786 23.090722 -6.96289062 19.72460938 C-4.64623072 13.14821732 -2.32470458 6.5735525 0 0 Z " fill="#AD0101" transform="translate(308,16)"/>
<path d="M0 0 C7.99137768 7.34532606 12.14911111 16.47549044 12.62109375 27.296875 C12.62891776 29.0664062 12.62105749 30.83607499 12.59765625 32.60546875 C12.60925781 33.48654297 12.62085938 34.36761719 12.6328125 35.27539062 C12.58798431 45.39909091 9.2763102 55.31012213 2.5078125 62.98828125 C-7.51874155 72.46122188 -18.77552004 74.22474829 -32.02734375 74.29296875 C-33.01347656 74.31359375 -33.99960937 74.33421875 -35.015625 74.35546875 C-46.40587925 74.41549644 -55.10156424 71.51794833 -63.77734375 64.04296875 C-73.69162904 53.78827882 -75.17648289 41.30961988 -74.98828125 27.7578125 C-74.81878349 22.43328105 -74.04196052 17.89201457 -71.77734375 13.04296875 C-71.39835937 12.20636719 -71.019375 11.36976563 -70.62890625 10.5078125 C-66.30183571 2.21634497 -59.21013041 -3.35800339 -50.58984375 -6.89453125 C-33.87990161 -11.55140037 -14.11378509 -10.76319546 0 0 Z " fill="#030303" transform="translate(444.77734375,211.95703125)"/>
<path d="M0 0 C23 0 23 0 28.875 4.8125 C30.30173567 6.83955614 31.67780147 8.90325913 33 11 C34.49776368 12.8728513 36.01852678 14.72755729 37.5625 16.5625 C38.29082031 17.46484375 39.01914062 18.3671875 39.76953125 19.296875 C42.69098199 22.83740724 45.75789139 26.23036672 48.859375 29.61328125 C51.3108439 32.3465796 53.6495013 35.17940157 56 38 C56.33 25.46 56.66 12.92 57 0 C64.92 0 72.84 0 81 0 C81 26.73 81 53.46 81 81 C58 81 58 81 51.125 75.1875 C49.49511719 73.24536133 49.49511719 73.24536133 48.421875 71.58203125 C46.24709857 68.34657741 43.88390273 65.3640548 41.375 62.375 C40.66988281 61.49585938 39.96476562 60.61671875 39.23828125 59.7109375 C35.99020044 55.77696179 32.53746529 52.04972788 29.06640625 48.3125 C27 46 27 46 25 43 C24.67 55.54 24.34 68.08 24 81 C16.08 81 8.16 81 0 81 C0 54.27 0 27.54 0 0 Z " fill="#030303" transform="translate(459,198)"/>
<path d="M0 0 C9.80054937 6.3046833 15.23603588 14.24326389 18.89453125 25.21875 C20.31463663 40.41681574 18.05881492 53.69704444 8.89453125 66.21875 C1.22061996 75.27778636 -7.71609462 81.01948415 -19.61328125 82.5390625 C-27.64177576 82.91657792 -34.66737071 80.45272851 -40.91796875 75.40625 C-48.51281003 68.29390452 -52.86721409 59.66960626 -53.34375 49.21484375 C-53.73594746 33.17695747 -49.86311586 20.73704811 -39.04296875 8.46875 C-28.83318778 -0.92242938 -13.2861936 -6.2523264 0 0 Z " fill="#AE0505" transform="translate(467.10546875,56.78125)"/>
<path d="M0 0 C1.77148438 0.26611328 1.77148438 0.26611328 4.09375 0.8203125 C5.3787439 1.12485352 5.3787439 1.12485352 6.68969727 1.43554688 C8.08079712 1.77682617 8.08079712 1.77682617 9.5 2.125 C10.45253662 2.35509766 11.40507324 2.58519531 12.38647461 2.82226562 C18.85518161 4.40904178 25.24206794 6.18638292 31.61328125 8.12353516 C37.03599988 9.75825038 42.49832725 11.15712988 48 12.5 C55.80331769 14.40731092 63.50375568 16.54759712 71.19140625 18.875 C75.46066707 20.13607396 79.75775842 21.2209259 84.09375 22.2265625 C84.7228125 22.48179688 85.351875 22.73703125 86 23 C87.10709386 26.32128158 86.82173564 26.79209083 86 30 C85.91852402 32.17059032 85.89247058 34.34352851 85.90234375 36.515625 C85.90556641 37.76601562 85.90878906 39.01640625 85.91210938 40.3046875 C85.92048828 41.60664063 85.92886719 42.90859375 85.9375 44.25 C85.94201172 45.56742188 85.94652344 46.88484375 85.95117188 48.2421875 C85.96295684 51.49483741 85.97940989 54.74739584 86 58 C79.7456057 56.820429 73.61692875 55.44318156 67.5 53.6875 C65.92711137 53.24339027 64.35419388 52.79938276 62.78125 52.35546875 C61.98847656 52.13036621 61.19570313 51.90526367 60.37890625 51.67333984 C56.59000053 50.60090532 52.79484764 49.55117445 49 48.5 C47.49475434 48.08216569 45.98954603 47.66419681 44.484375 47.24609375 C43.74123047 47.03968262 42.99808594 46.83327148 42.23242188 46.62060547 C40.0349008 46.0097023 37.83771764 45.39759829 35.640625 44.78515625 C24.66441845 41.72743751 13.67470742 38.72060552 2.68017578 35.72949219 C-1.88039143 34.4881937 -6.44017869 33.24403523 -11 32 C-10.39968772 27.77777747 -9.41937097 23.98790511 -7.96875 19.98046875 C-7.57042969 18.87638672 -7.17210937 17.77230469 -6.76171875 16.63476562 C-6.34535156 15.49716797 -5.92898438 14.35957031 -5.5 13.1875 C-5.08363281 12.03056641 -4.66726563 10.87363281 -4.23828125 9.68164062 C-1.13782402 1.13782402 -1.13782402 1.13782402 0 0 Z " fill="#AD0202" transform="translate(283,89)"/>
<path d="M0 0 C136.79523525 -3.72277374 136.79523525 -3.72277374 189.60873413 14.02212524 C200.64897286 17.71540541 211.82264472 20.64704505 223.125 23.42578125 C224.0185425 23.64553682 224.912085 23.8652924 225.83270454 24.09170723 C230.28668548 25.18440495 234.74254696 26.26916939 239.19949341 27.34970093 C246.68836688 29.1679623 254.16281241 31.04379943 261.63801575 32.91730309 C265.14139518 33.79470098 268.64576203 34.6681304 272.15014648 35.54150391 C273.28612778 35.82474518 274.42210907 36.10798645 275.59251404 36.39981079 C276.38698441 36.59787323 277.18145477 36.79593567 278 37 C278 37.33 278 37.66 278 38 C266.67463934 38.83421077 255.35156351 39.33872773 244 39.625 C243.12623215 39.64710918 242.25246429 39.66921837 241.35221863 39.69199753 C192.29972653 40.7786728 146.07708902 27.30888803 99.32177734 13.77443886 C98.55706116 13.55428801 97.79234497 13.33413715 97.00445557 13.10731506 C96.34733707 12.91650392 95.69021858 12.72569277 95.01318741 12.52909946 C92.6991229 11.92092444 90.34618582 11.46923716 88 11 C88.99 7.7 89.98 4.4 91 1 C60.97 1 30.94 1 0 1 C0 0.67 0 0.34 0 0 Z " fill="#AC0505" transform="translate(222,1)"/>
<path d="M0 0 C3.13276047 2.53055294 5.51836945 4.75798121 6.91015625 8.60546875 C6.98789085 10.93750687 6.99983353 13.27385934 6.91015625 15.60546875 C3.97113276 15.74028634 1.03826066 15.83946291 -1.90234375 15.91796875 C-2.73572266 15.95986328 -3.56910156 16.00175781 -4.42773438 16.04492188 C-6.74926143 16.09153888 -8.81701646 16.08744403 -11.08984375 15.60546875 C-13.0390625 13.1484375 -13.0390625 13.1484375 -14.08984375 10.60546875 C-17.23326368 9.03375879 -20.64755826 9.37371092 -24.08984375 9.60546875 C-25.07984375 9.93546875 -26.06984375 10.26546875 -27.08984375 10.60546875 C-26.48602676 13.09658143 -26.48602676 13.09658143 -25.08984375 15.60546875 C-22.64350284 16.83685915 -22.64350284 16.83685915 -19.671875 17.4140625 C-18.58197266 17.68669922 -17.49207031 17.95933594 -16.36914062 18.24023438 C-15.22509766 18.50513672 -14.08105469 18.77003906 -12.90234375 19.04296875 C1.96758584 22.49415585 1.96758584 22.49415585 6.91015625 28.60546875 C9.52273219 33.23060583 9.53800621 37.38646594 8.91015625 42.60546875 C7.21365435 48.16729602 4.08090555 52.76155663 -1.08984375 55.60546875 C-11.97126147 60.04394177 -24.89105889 59.98426232 -36.08984375 56.60546875 C-41.02603038 54.36249174 -45.07606012 51.81761461 -47.08984375 46.60546875 C-47.59506928 43.60948134 -47.87464693 40.63386791 -48.08984375 37.60546875 C-45.17095227 37.44330811 -42.2610515 37.32455673 -39.33984375 37.23046875 C-38.51484375 37.18019531 -37.68984375 37.12992187 -36.83984375 37.078125 C-34.45055493 37.02031963 -32.41242832 37.03065325 -30.08984375 37.60546875 C-27.89453125 40.6015625 -27.89453125 40.6015625 -26.08984375 43.60546875 C-23.12597066 44.36501142 -23.12597066 44.36501142 -19.96484375 44.04296875 C-18.91039062 44.00042969 -17.8559375 43.95789063 -16.76953125 43.9140625 C-14.12171698 43.76388497 -14.12171698 43.76388497 -12.08984375 42.60546875 C-12.08984375 41.28546875 -12.08984375 39.96546875 -12.08984375 38.60546875 C-13.21261719 38.27933594 -14.33539063 37.95320313 -15.4921875 37.6171875 C-19.34110436 36.49655691 -23.18399111 35.35637584 -27.02587891 34.21191406 C-28.67087588 33.72857215 -30.32269848 33.26847733 -31.9765625 32.81640625 C-37.94897429 31.08617875 -42.9186834 28.10827411 -46.26171875 22.71484375 C-48.2824457 17.56770906 -47.47532756 11.98867536 -46.02734375 6.79296875 C-42.52807256 1.03610324 -37.26225902 -1.97546417 -30.87109375 -3.890625 C-20.86185025 -5.70409749 -8.70508538 -5.80881398 0 0 Z " fill="#030303" transform="translate(329.08984375,224.39453125)"/>
<path d="M0 0 C9.24 0 18.48 0 28 0 C28 29.04 28 58.08 28 88 C18.76 88 9.52 88 0 88 C0 58.96 0 29.92 0 0 Z " fill="#000000" transform="translate(340,194)"/>
<path d="M0 0 C8.91 0 17.82 0 27 0 C27 24.42 27 48.84 27 74 C18.09 74 9.18 74 0 74 C0 49.58 0 25.16 0 0 Z " fill="#000000" transform="translate(253,206)"/>
<path d="M0 0 C4.73963177 2.14708883 7.21570938 4.64006489 9.703125 9.31640625 C12.18345846 16.75740662 12.04990367 28.24233075 9.203125 35.62890625 C6.72556394 40.01427565 3.45400302 42.6694352 -1.296875 44.31640625 C-6.47353818 45.14943251 -11.43915893 45.11111265 -16.234375 42.81640625 C-20.61779353 39.23810541 -22.85299447 35.35190325 -23.67944336 29.70019531 C-23.83245037 26.85310917 -23.84303839 24.04199558 -23.796875 21.19140625 C-23.81234375 20.22847656 -23.8278125 19.26554687 -23.84375 18.2734375 C-23.81169562 12.44755364 -23.2538868 8.88943637 -19.296875 4.31640625 C-13.34408121 -0.92772161 -7.78804375 -2.31787016 0 0 Z " fill="#FAFAFA" transform="translate(420.296875,222.68359375)"/>
<path d="M0 0 C9.80054937 6.3046833 15.23603588 14.24326389 18.89453125 25.21875 C20.31463663 40.41681574 18.05881492 53.69704444 8.89453125 66.21875 C1.22061996 75.27778636 -7.71609462 81.01948415 -19.61328125 82.5390625 C-27.64177576 82.91657792 -34.66737071 80.45272851 -40.91796875 75.40625 C-48.51281003 68.29390452 -52.86721409 59.66960626 -53.34375 49.21484375 C-53.73594746 33.17695747 -49.86311586 20.73704811 -39.04296875 8.46875 C-28.83318778 -0.92242938 -13.2861936 -6.2523264 0 0 Z M-27.10546875 7.21875 C-28.62140625 8.0540625 -28.62140625 8.0540625 -30.16796875 8.90625 C-39.93706316 16.59681368 -45.84965507 25.73953088 -47.54296875 38.09375 C-48.68274708 48.43524193 -47.67239927 57.21873587 -41.8828125 66.0234375 C-37.47308125 71.47018248 -31.61887966 75.62250831 -24.5625 76.5546875 C-14.57369791 76.70223258 -6.91558403 73.69056632 0.7890625 67.3359375 C9.73359105 58.34162493 13.72649728 46.97707985 14.20703125 34.53125 C14.09981637 24.91764938 10.72041375 16.09138512 3.89453125 9.21875 C-5.92689145 1.61567953 -16.29250466 1.21619547 -27.10546875 7.21875 Z " fill="#FBF3F3" transform="translate(467.10546875,56.78125)"/>
<path d="M0 0 C0.87785156 0.47566406 0.87785156 0.47566406 1.7734375 0.9609375 C8.31464254 4.9884917 11.54489709 11.42838376 14.375 18.375 C15.75282864 26.36640614 15.64585424 34.30434395 13 42 C12.74347656 42.79019531 12.48695313 43.58039063 12.22265625 44.39453125 C8.20771098 55.61225387 1.47360834 62.55261908 -8.96484375 68.03125 C-15.28178822 70.82155676 -22.13514804 71.25121107 -28.71484375 69.12109375 C-36.90246765 65.39049218 -41.88795898 59.80791316 -45.24609375 51.50390625 C-48.70466882 40.01713618 -47.23587854 27.78686259 -41.875 17.1875 C-36.43204388 7.83735961 -30.00257107 2.11225381 -20.1875 -2.25 C-12.90010377 -3.96468147 -6.64826509 -3.63772996 0 0 Z M-35 16 C-40.77881557 25.5264633 -41.81036793 33.98584433 -41 45 C-39.43658985 51.26257437 -35.82522276 56.73019857 -31 61 C-26.11142235 63.80640569 -21.57797963 64.89287803 -16 64 C-6.83566205 61.44954746 -0.73949663 57.08482718 4.3125 49.0625 C9.37878762 39.94318229 10.3349023 30.63923079 8.53515625 20.33984375 C6.56779303 13.55302271 2.86036758 8.7734279 -3.125 5.0625 C-16.12966077 0.44887312 -26.89742718 5.85447078 -35 16 Z " fill="#B00B0B" transform="translate(466,63)"/>
<path d="M0 0 C0 2.97 0 5.94 0 9 C-5.65804709 11.42563628 -11.31806345 13.84659425 -16.97998047 16.26318359 C-18.90696587 17.0864344 -20.83340078 17.91097497 -22.75927734 18.73681641 C-25.5229856 19.9216692 -28.28862182 21.10191308 -31.0546875 22.28125 C-31.9193161 22.65310425 -32.7839447 23.0249585 -33.67477417 23.40808105 C-34.47545319 23.74843384 -35.2761322 24.08878662 -36.10107422 24.43945312 C-36.8072287 24.7414563 -37.51338318 25.04345947 -38.24093628 25.35461426 C-40 26 -40 26 -42 26 C-42 26.66 -42 27.32 -42 28 C-42.59167969 28.23074219 -43.18335938 28.46148437 -43.79296875 28.69921875 C-48.79807326 30.76494704 -52.53659646 32.67074557 -56 37 C-57.86474365 42.70250639 -57.97050931 48.85679193 -55.5 54.3125 C-49.63852997 60.61358028 -42.93631844 62.91598253 -34.6875 64.6875 C-32.91938983 65.08197368 -31.15239794 65.48150268 -29.38671875 65.88671875 C-28.22982544 66.13748169 -28.22982544 66.13748169 -27.04956055 66.39331055 C-25 67 -25 67 -22 69 C-22.375 71.4375 -22.375 71.4375 -23 74 C-27.18328222 76.09164111 -32.45528259 75.5696376 -37 75 C-39.75 72.625 -39.75 72.625 -41 70 C-41 69.34 -41 68.68 -41 68 C-46.94 68 -52.88 68 -59 68 C-58.67 70.31 -58.34 72.62 -58 75 C-58.12109375 78.08984375 -58.12109375 78.08984375 -58.4375 80.9375 C-58.53933594 81.89527344 -58.64117187 82.85304688 -58.74609375 83.83984375 C-58.82988281 84.55269531 -58.91367187 85.26554687 -59 86 C-59.33 86 -59.66 86 -60 86 C-60 62.9 -60 39.8 -60 16 C-59.67 16 -59.34 16 -59 16 C-59 17.65 -59 19.3 -59 21 C-58.36408432 20.7369104 -57.72816864 20.4738208 -57.07298279 20.20275879 C-50.44390153 17.4630112 -43.80792964 14.74050495 -37.16772461 12.02783203 C-34.69098239 11.01500617 -32.21745471 9.99520374 -29.74487305 8.97216797 C-26.18739431 7.50114301 -22.62377261 6.04599611 -19.05859375 4.59375 C-17.95728622 4.13440063 -16.8559787 3.67505127 -15.72129822 3.20178223 C-10.24987199 0.99104505 -5.92119535 -0.61901731 0 0 Z " fill="#A71212" transform="translate(340,194)"/>
<path d="M0 0 C4.32392847 -0.06903966 8.6459293 -0.12871715 12.9699707 -0.16479492 C14.43943782 -0.17984066 15.90886034 -0.20028238 17.37817383 -0.22631836 C19.4957177 -0.26288955 21.61266565 -0.27976801 23.73046875 -0.29296875 C25.63928833 -0.31653442 25.63928833 -0.31653442 27.58666992 -0.34057617 C32.41538551 0.14122472 34.89620869 1.92604089 38.3125 5.25 C40.5036109 8.82069925 40.50763576 10.86639449 40 15 C38.3902161 19.18543815 36.91013655 21.77503063 33 24 C30.37854506 24.25630289 28.00473833 24.3506943 25.390625 24.29296875 C24.66381531 24.28872391 23.93700562 24.28447906 23.18817139 24.28010559 C20.87506496 24.2633613 18.56284145 24.22571885 16.25 24.1875 C14.67839803 24.17244758 13.10678236 24.15876015 11.53515625 24.14648438 C7.68949337 24.1160277 3.84573066 24.05730393 0 24 C0 16.08 0 8.16 0 0 Z " fill="#FCFCFC" transform="translate(1037,179)"/>
<path d="M0 0 C5.38044039 3.17221798 8.52856698 8.00810678 11 13.625 C13.01194068 26.0990322 11.86778649 36.86173902 4.5 47.3125 C-0.04368968 52.77866664 -6.29590246 57.16998774 -13.375 58.5 C-19.74250413 59.03062534 -24.09443438 58.2062355 -29.375 54.5 C-35.1103084 49.38612457 -38.00057765 43.63251331 -38.69140625 36.0078125 C-38.942231 27.96523812 -38.22660624 21.59930209 -34.375 14.5 C-33.818125 13.46875 -33.26125 12.4375 -32.6875 11.375 C-24.38079077 1.04773988 -13.38928188 -5.8304002 0 0 Z M-28.375 15 C-32.73338222 22.29190871 -34.48532182 29.05239689 -33.375 37.5 C-31.27383273 43.86662701 -28.26492468 49.16608037 -22.375 52.5 C-16.51568866 53.59308161 -11.34750959 52.78914361 -6.1875 49.82421875 C0.12028872 45.21572656 4.10188567 38.45012156 6.375 31.0625 C7.21099369 22.4935647 6.54969908 16.03832616 1.8125 8.6875 C-1.85368569 5.02131431 -5.01296636 3.70430505 -10.125 2.9375 C-18.26872481 3.34235056 -24.08305819 8.45947329 -28.375 15 Z " fill="#FBF4F4" transform="translate(463.375,68.5)"/>
<path d="M0 0 C0.66 0 1.32 0 2 0 C4.03498817 6.65362627 6.06208276 13.30960921 8.08056641 19.96826172 C8.65454119 21.8608849 9.22955894 23.75319247 9.80615234 25.64501953 C10.50099719 27.92847584 11.18912483 30.2138362 11.875 32.5 C12.07762451 33.16185303 12.28024902 33.82370605 12.48901367 34.50561523 C13.74941575 38.74050094 14.36331135 42.54317943 15 47 C5.76 47 -3.48 47 -13 47 C-12.32765394 42.29357761 -11.71939637 38.64284098 -10.3125 34.25 C-9.96058594 33.13753906 -9.60867188 32.02507812 -9.24609375 30.87890625 C-8.83099321 29.58585271 -8.41560556 28.29289131 -8 27 C-7.22214824 24.56607676 -6.44620293 22.13156865 -5.67260742 19.69628906 C-5.15341973 18.06323958 -4.63158342 16.43102902 -4.10668945 14.79980469 C-2.5450911 9.90208783 -1.19718383 4.99966772 0 0 Z " fill="#F5F5F5" transform="translate(633,186)"/>
<path d="M0 0 C4.455 0.99 4.455 0.99 9 2 C9.3403125 3.98 9.3403125 3.98 9.6875 6 C11.69670279 14.98481529 16.48971961 19.99314641 24 25 C31.56081932 27.16023409 38.98031405 26.40310357 46 23 C49.18901072 20.76471211 52.23720387 18.52559226 54 15 C58.455 15.99 58.455 15.99 63 17 C60.04081856 25.63094586 53.81832006 30.13888115 45.87109375 34.046875 C38.13549587 37.06703476 28.92736514 37.56986661 21.1875 34.375 C19.76707009 33.62836376 18.36978265 32.835932 17 32 C16.30132812 31.57589844 15.60265625 31.15179688 14.8828125 30.71484375 C7.47736503 25.69870103 1.94936135 17.79711791 0 9 C-0.21454521 5.94869037 -0.14369519 3.06549744 0 0 Z " fill="#AF0808" transform="translate(275,127)"/>
<path d="M0 0 C2.40186165 2.40186165 2.7118545 3.97956459 3.5859375 7.2421875 C3.87726562 8.30953125 4.16859375 9.376875 4.46875 10.4765625 C4.7678125 11.59804687 5.066875 12.71953125 5.375 13.875 C7.39210304 21.37219715 9.50919024 28.75208207 12.15478516 36.05517578 C13 39 13 39 14 47 C4.76 47 -4.48 47 -14 47 C-12.63154059 40.84193268 -11.14480295 35.01841055 -9.1875 29.0625 C-6.77483962 21.60003329 -4.57966784 14.10227816 -2.5612793 6.52368164 C-1.10070366 1.10070366 -1.10070366 1.10070366 0 0 Z " fill="#F6F6F6" transform="translate(907,186)"/>
<path d="M0 0 C11.22 0 22.44 0 34 0 C34 6.27 34 12.54 34 19 C22.78 19 11.56 19 0 19 C0 12.73 0 6.46 0 0 Z " fill="#AD0000" transform="translate(337,169)"/>
<path d="M0 0 C0.83265381 0.00523682 1.66530762 0.01047363 2.52319336 0.01586914 C3.42231445 0.0190918 4.32143555 0.02231445 5.24780273 0.02563477 C6.66609375 0.03820312 6.66609375 0.03820312 8.11303711 0.05102539 C9.06243164 0.05553711 10.01182617 0.06004883 10.98999023 0.06469727 C13.34356776 0.07652429 15.69702188 0.09300514 18.05053711 0.11352539 C16.73573233 3.63648284 15.18079639 6.72879833 13.18725586 9.91430664 C12.62973633 10.80956055 12.0722168 11.70481445 11.49780273 12.62719727 C10.91708008 13.55081055 10.33635742 14.47442383 9.73803711 15.42602539 C9.16891602 16.33803711 8.59979492 17.25004883 8.01342773 18.18969727 C6.89135315 19.98682016 5.76201783 21.77943273 4.625 23.56713867 C3.61614349 25.19876736 2.64958136 26.85778409 1.73974609 28.54663086 C0.62202026 30.57775496 -0.41293721 32.37754261 -1.94946289 34.11352539 C-5.06274414 34.89477539 -5.06274414 34.89477539 -8.26196289 34.61352539 C-9.3305957 34.54133789 -10.39922852 34.46915039 -11.50024414 34.39477539 C-12.71260742 34.25555664 -12.71260742 34.25555664 -13.94946289 34.11352539 C-11.97678798 26.4055855 -9.58081848 18.9498689 -6.82446289 11.48852539 C-6.46481445 10.49723633 -6.10516602 9.50594727 -5.73461914 8.48461914 C-2.6843368 0.15632018 -2.6843368 0.15632018 0 0 Z " fill="#AB0202" transform="translate(229.949462890625,244.886474609375)"/>
<path d="M0 0 C8.91 0 17.82 0 27 0 C27 5.94 27 11.88 27 18 C18.09 18 9.18 18 0 18 C0 12.06 0 6.12 0 0 Z " fill="#000000" transform="translate(253,179)"/>
<path d="M0 0 C5.94 0 11.88 0 18 0 C16.04422908 5.99165317 13.94636654 11.88743738 11.64453125 17.75390625 C11.18478157 18.93339088 11.18478157 18.93339088 10.71574402 20.13670349 C9.7500586 22.61278003 8.78133736 25.08765529 7.8125 27.5625 C7.15149028 29.25578036 6.4906812 30.94913907 5.83007812 32.64257812 C4.22236669 36.76262667 2.61193423 40.88160186 1 45 C0.67 45 0.34 45 0 45 C0 30.15 0 15.3 0 0 Z " fill="#AD0202" transform="translate(504,45)"/>
<path d="M0 0 C0.66 0.33 1.32 0.66 2 1 C1.21625 1.53625 0.4325 2.0725 -0.375 2.625 C-4.01241589 5.91599533 -4.7439693 8.58149461 -5.25390625 13.3984375 C-5.44997523 17.61075827 -5.25751545 20.43132005 -3.5 24.3125 C2.36147003 30.61358028 9.06368156 32.91598253 17.3125 34.6875 C19.08061017 35.08197368 20.84760206 35.48150268 22.61328125 35.88671875 C23.77017456 36.13748169 23.77017456 36.13748169 24.95043945 36.39331055 C27 37 27 37 30 39 C29.625 41.4375 29.625 41.4375 29 44 C26.29437257 45.35281371 24.08106345 45.20609362 21.0625 45.25 C19.47115234 45.28867187 19.47115234 45.28867187 17.84765625 45.328125 C15 45 15 45 13.12109375 43.796875 C12 42 12 42 12 37 C5.73 37 -0.54 37 -7 37 C-7 25.78 -7 14.56 -7 3 C-4.69 2.01 -2.38 1.02 0 0 Z " fill="#F5F5F5" transform="translate(288,224)"/>
<path d="M0 0 C6.52601633 1.15784161 12.86998059 2.72373723 19.25 4.5 C20.01812012 4.71358154 20.78624023 4.92716309 21.57763672 5.1472168 C25.75845432 6.32508437 29.89108072 7.58674114 34 9 C31.10526401 13.11943199 28.80043921 15.37127955 24 17 C18.42979894 17.62741276 13.68530386 17.7966891 8.5625 15.375 C3.32010667 10.51619642 0.44055765 7.34262742 0 0 Z " fill="#AF0808" transform="translate(290,131)"/>
<path d="M0 0 C3.68980194 0.61496699 6.98234137 1.19066169 10.5234375 2.19140625 C11.31621094 2.41376953 12.10898437 2.63613281 12.92578125 2.86523438 C14.13814453 3.21038086 14.13814453 3.21038086 15.375 3.5625 C16.20644531 3.79646484 17.03789062 4.03042969 17.89453125 4.27148438 C19.93048609 4.84482798 21.96535527 5.4220244 24 6 C24 9.3 24 12.6 24 16 C16.08 16 8.16 16 0 16 C0 10.72 0 5.44 0 0 Z " fill="#B00909" transform="translate(347,147)"/>
<path d="M0 0 C0 5.94 0 11.88 0 18 C-7.59 18 -15.18 18 -23 18 C-20 8 -20 8 -17.80078125 6.03515625 C-16.97964844 5.71417969 -16.15851563 5.39320313 -15.3125 5.0625 C-14.43207031 4.69898438 -13.55164063 4.33546875 -12.64453125 3.9609375 C-11.77183594 3.64382812 -10.89914063 3.32671875 -10 3 C-9.22011719 2.68289062 -8.44023437 2.36578125 -7.63671875 2.0390625 C-2.5203555 0 -2.5203555 0 0 0 Z " fill="#A80404" transform="translate(253,221)"/>
<path d="M0 0 C2.49335663 3.74003494 2.63175396 6.67017406 2 11 C0.65703344 14.89044952 -1.0707314 18.040755 -3.9375 21 C-6.56489185 22.27388696 -8.1189893 22.51710448 -11 22 C-13.86851361 19.62605771 -14.00437551 17.96249559 -14.4375 14.25 C-14.21656354 8.62138065 -11.87430743 4.06173817 -8.125 -0.0625 C-5.06609941 -1.41201497 -3.15135577 -0.95910828 0 0 Z " fill="#FBF4F4" transform="translate(456,86)"/>
<path d="M0 0 C0 1.98 0 3.96 0 6 C-6.6 8.64 -13.2 11.28 -20 14 C-21 11 -21 11 -20.30273438 8.93261719 C-18.7602386 6.64431199 -17.70043609 6.0836616 -15.15625 5.078125 C-14.40472656 4.77519531 -13.65320313 4.47226563 -12.87890625 4.16015625 C-12.09386719 3.85980469 -11.30882812 3.55945313 -10.5 3.25 C-9.71496094 2.93417969 -8.92992187 2.61835938 -8.12109375 2.29296875 C-2.33407738 0 -2.33407738 0 0 0 Z " fill="#F5EDED" transform="translate(253,221)"/>
<path d="M0 0 C9.9 0 19.8 0 30 0 C30 1.98 30 3.96 30 6 C29.67 6 29.34 6 29 6 C29 4.35 29 2.7 29 1 C20.09 1 11.18 1 2 1 C2 4.96 2 8.92 2 13 C0.02 13.33 -1.96 13.66 -4 14 C-3.67 12.02 -3.34 10.04 -3 8 C-2.34 8 -1.68 8 -1 8 C-0.67 5.36 -0.34 2.72 0 0 Z " fill="#8D8C8C" transform="translate(251,178)"/>
<path d="M0 0 C0.33 0 0.66 0 1 0 C1 4.29 1 8.58 1 13 C-3.29 13 -7.58 13 -12 13 C-9.44751213 10.44751213 -6.89487917 7.89732384 -4.3125 5.375 C-1.88724324 3.02914245 -1.88724324 3.02914245 0 0 Z " fill="#AF0808" transform="translate(341,150)"/>
<path d="M0 0 C0.33 0 0.66 0 1 0 C1 3.96 1 7.92 1 12 C-0.65 12.33 -2.3 12.66 -4 13 C-3.67 11.02 -3.34 9.04 -3 7 C-2.34 7 -1.68 7 -1 7 C-0.67 4.69 -0.34 2.38 0 0 Z " fill="#EEE6E6" transform="translate(251,179)"/>
<path d="M0 0 C0.33 0 0.66 0 1 0 C0.67 5.61 0.34 11.22 0 17 C-3 13 -3 13 -2.890625 10.2734375 C-2.67921875 9.31695312 -2.4678125 8.36046875 -2.25 7.375 C-2.04890625 6.41335937 -1.8478125 5.45171875 -1.640625 4.4609375 C-1 2 -1 2 0 0 Z " fill="#D6D6D6" transform="translate(1257,193)"/>
<path d="M0 0 C0.66 0.33 1.32 0.66 2 1 C1.21625 1.53625 0.4325 2.0725 -0.375 2.625 C-3.33426299 5.30242842 -4.04608256 7.18433025 -5 11 C-7.1519437 7.77208445 -7.20086443 6.71599191 -7 3 C-4.69631264 1.93347808 -2.35981813 0.93578995 0 0 Z " fill="#E2D8D8" transform="translate(288,224)"/>
<path d="M0 0 C2.8086289 2.8086289 2.72711179 5.11134294 3 9 C2.34 9.99 1.68 10.98 1 12 C0.01751476 7.9472484 -0.08159574 4.16138263 0 0 Z " fill="#C0C0C0" transform="translate(1175,192)"/>
</svg>
