<svg id="Layer_1" data-name="Layer 1" xmlns="http://www.w3.org/2000/svg" viewBox="0 0 170.08 85.04"><defs><style>.cls-1{fill:none;}.cls-2{fill:#cee3ad;}.cls-3{fill:#b8d989;}.cls-4{fill:#9cc366;}.cls-5{fill:#8bc640;}</style></defs><title>1341_TruVision_RGB</title><rect class="cls-1" width="170.08" height="85.04"/><path d="M32.79,40.26V37.58h2.08V35.12h3.7v2.46h5.78v2.68H38.57v3.5c0,1,.36,1.46,1.44,1.46s1.6-.38,1.6-1.48c0-.18,0-.38,0-.6h3.28a7,7,0,0,1,0,.9c0,2.84-1.56,4-5.22,4-3.48,0-4.8-.9-4.8-3.56V40.26Z" transform="translate(0)"/><path d="M54.29,37.42c2.84,0,3.94,1.08,3.94,4,0,.32,0,.66,0,1H54.93v-.16c0-1.2-.66-1.76-2.06-1.76s-2.34.72-2.34,1.9v5.48h-3.7V37.58h3.7V39.5c.76-1.52,1.88-2.08,3.76-2.08Z" transform="translate(0)"/><path d="M72.83,37.58V47.86h-3.7V46.28c-1,1.46-2.34,1.72-4.62,1.72-3.44,0-5-1.2-5-3.84V37.58h3.7v5.24c0,1.58.42,2.2,2.8,2.2s3.16-.54,3.16-2.42v-5Z" transform="translate(0)"/><polygon points="90.33 33.32 95.05 33.32 87.29 47.86 81.91 47.86 74.23 33.32 79.07 33.32 84.53 43.76 90.33 33.32 90.33 33.32"/><path d="M96.29,47.86V37.58H100V47.86Zm0-11.52v-3H100v3Z" transform="translate(0)"/><path d="M106.11,44.6v0c0,.66.66.92,2,.92h2.7c1,0,1.48-.2,1.48-.8s-.5-.78-1.52-.8l-3.66-.06c-3.32-.06-4.9-.66-4.9-3.14s1.56-3.32,5-3.32h4.2c2.68,0,3.94,1,4,3h-3.7c-.18-.4-.8-.6-1.84-.6h-2.58c-.9,0-1.34.14-1.34.66s.54.66,1.74.68l4.52.06c2.62,0,3.82,1,3.82,3.26,0,2.68-1.4,3.46-4.62,3.46h-3.76c-3.82,0-5.42-.58-5.46-3.4Z" transform="translate(0)"/><path d="M118.17,47.86V37.58h3.7V47.86Zm0-11.52v-3h3.7v3Z" transform="translate(0)"/><path d="M132.09,45.22c1.68,0,2.4-.44,2.4-1.82V42c0-1.34-.7-1.82-2.4-1.82h-1.74c-1.8,0-2.42.44-2.42,1.88v1.32c0,1.34.72,1.8,2.42,1.8Zm-7.86-1v-2.8c0-2.88,1.32-4,5.12-4h3.72c3.64,0,5.12,1.12,5.12,3.86v2.86c0,2.88-1.54,3.84-5.12,3.84h-3.7c-3.54,0-5.14-1-5.14-3.78Z" transform="translate(0)"/><path d="M140.45,47.86V37.64h3.7v1.58c1-1.46,2.34-1.74,4.62-1.74,3.36,0,5,1.26,5,3.74v6.64h-3.7V42.68c0-1.66-.44-2.22-3-2.22-2.16,0-3,.68-3,2.44v5Z" transform="translate(0)"/><path class="cls-2" d="M26.47,19.66H18a1.76,1.76,0,0,0-1.76,1.76v6.5A1.76,1.76,0,0,0,18,29.68h8.43a1.76,1.76,0,0,0,1.76-1.76v-6.5a1.76,1.76,0,0,0-1.76-1.76m0,1.76v6.5H18v-6.5h8.43" transform="translate(0)"/><path class="cls-3" d="M30.48,35.3H22a1.76,1.76,0,0,1-1.76-1.76V29.68H22v3.87h8.43V27H28.23V25.29h2.25A1.76,1.76,0,0,1,32.24,27v6.5a1.76,1.76,0,0,1-1.76,1.76M22,27.92H20.29V27A1.76,1.76,0,0,1,22,25.29h4.43V27H22v.88" transform="translate(0)"/><path class="cls-4" d="M22,29.68H20.29V27.92H22v1.76M28.23,27H26.47V25.29h1.76V27" transform="translate(0)"/><path class="cls-5" d="M26.47,30.91H18a1.76,1.76,0,0,0-1.76,1.76v6.5A1.76,1.76,0,0,0,18,40.92h8.43a1.76,1.76,0,0,0,1.76-1.76v-6.5a1.76,1.76,0,0,0-1.76-1.76m0,1.76h0v6.5H18v-6.5h8.43" transform="translate(0)"/></svg>