<?xml version="1.0" encoding="utf-8"?>
<!-- Generator: Adobe Illustrator 21.0.2, SVG Export Plug-In . SVG Version: 6.00 Build 0)  -->
<svg version="1.1" id="Layer_1" xmlns="http://www.w3.org/2000/svg" xmlns:xlink="http://www.w3.org/1999/xlink" x="0px" y="0px"
	 viewBox="0 0 170.1 85" style="enable-background:new 0 0 170.1 85;" xml:space="preserve">
<style type="text/css">
	.st0{opacity:0.5;fill:#95B3DE;}
	.st1{opacity:0.7;}
	.st2{fill:#6698D0;}
	.st3{fill:#006FB9;}
</style>
<title>1341_TruPortal_RGB</title>
<g>
	<path d="M40.8,37.7h3.7V48h-3.7v-1.6c-0.4,0.6-0.9,1.1-1.6,1.3c-0.7,0.3-1.7,0.4-3,0.4c-1.7,0-3-0.3-3.8-0.9
		c-0.8-0.6-1.2-1.6-1.2-2.9v-6.6h3.7V43c0,0.9,0.2,1.5,0.6,1.8c0.4,0.3,1.1,0.4,2.2,0.4c1.2,0,2-0.2,2.5-0.5c0.5-0.4,0.7-1,0.7-1.9
		V37.7z"/>
	<path d="M50.3,48h-3.7V33.5h3.7V48z"/>
	<path d="M54.1,40.4H52v-2.7h2.1v-2.5h3.7v2.5h5.8v2.7h-5.8v3.5c0,0.5,0.1,0.9,0.3,1.1c0.2,0.2,0.6,0.3,1.1,0.3c0.6,0,1-0.1,1.2-0.3
		c0.2-0.2,0.4-0.6,0.4-1.2c0-0.1,0-0.3,0-0.5c0,0,0,0,0-0.1h3.3c0,0.1,0,0.2,0,0.4c0,0.1,0,0.3,0,0.5c0,1.4-0.4,2.4-1.2,3
		c-0.8,0.6-2.1,0.9-4,0.9c-1.8,0-3-0.3-3.7-0.8c-0.7-0.5-1.1-1.5-1.1-2.8V40.4z"/>
	<path d="M69.4,39.6c0.4-0.7,0.8-1.3,1.4-1.6c0.6-0.3,1.4-0.5,2.3-0.5c1.4,0,2.4,0.3,3,0.9c0.6,0.6,0.9,1.6,0.9,3c0,0.2,0,0.5,0,1
		v0.1h-3.3v-0.2c0-0.6-0.2-1.1-0.5-1.3c-0.3-0.3-0.9-0.4-1.6-0.4c-0.7,0-1.3,0.2-1.7,0.5c-0.4,0.3-0.6,0.8-0.6,1.4V48h-3.7V37.7h3.7
		V39.6z"/>
	<path d="M91.5,48h-3.7v-1.2c-0.4,0.5-1,0.8-1.7,1c-0.8,0.2-1.8,0.3-3.1,0.3c-1.9,0-3.2-0.2-3.9-0.7c-0.7-0.5-1.1-1.4-1.1-2.7
		c0-1.3,0.4-2.2,1.1-2.6c0.7-0.5,2.1-0.7,4.1-0.7c1.1,0,2.1,0.1,2.8,0.2c0.7,0.1,1.3,0.4,1.7,0.7v-1.1c0-0.4-0.1-0.6-0.4-0.8
		c-0.2-0.2-0.6-0.3-1.1-0.3h-3c-0.4,0-0.6,0.1-0.8,0.2c-0.2,0.1-0.3,0.3-0.3,0.6h-3.7v-0.1c0-1.1,0.4-1.9,1.2-2.3
		c0.8-0.5,2.1-0.7,4-0.7h3.6c1.4,0,2.4,0.3,3.1,0.8s1,1.4,1,2.6V48z M85.9,43.6h-2.3c-0.7,0-1.2,0.1-1.4,0.2
		c-0.3,0.2-0.4,0.4-0.4,0.8c0,0.4,0.1,0.6,0.4,0.8c0.3,0.1,0.7,0.2,1.5,0.2h2.3c0.7,0,1.2-0.1,1.4-0.2c0.3-0.2,0.4-0.4,0.4-0.8
		c0-0.4-0.1-0.6-0.4-0.8C87.2,43.6,86.7,43.6,85.9,43.6z"/>
	<path d="M93.3,43.2l4.4,0v0.3c0,0.5,0.1,0.9,0.4,1.1c0.3,0.2,0.8,0.3,1.7,0.3h5.6c0.5,0,0.9-0.1,1.2-0.3c0.2-0.2,0.4-0.5,0.4-0.9
		c0-0.4-0.1-0.7-0.4-0.9c-0.3-0.2-0.9-0.3-1.7-0.4l-7-0.2c-1.7-0.1-2.9-0.4-3.5-1c-0.6-0.6-0.9-1.7-0.9-3.3c0-0.8,0.1-1.5,0.2-2.1
		c0.2-0.5,0.4-1,0.8-1.3c0.4-0.4,1-0.7,1.7-0.9c0.7-0.2,1.8-0.3,3.3-0.3h6.8c1.7,0,2.9,0.3,3.6,0.9c0.7,0.6,1.1,1.6,1.1,3
		c0,0.1,0,0.2,0,0.3c0,0.1,0,0.3,0,0.5h-4.3v-0.1c0-0.5-0.1-0.8-0.4-1.1c-0.2-0.2-0.6-0.4-1.1-0.4h-5.1c-0.9,0-1.4,0.1-1.7,0.3
		c-0.3,0.2-0.4,0.5-0.4,0.9c0,0.4,0.1,0.7,0.4,0.9c0.2,0.2,0.7,0.3,1.4,0.4l7.3,0.1c1.7,0,2.8,0.4,3.5,1.1c0.7,0.7,1,1.9,1,3.6
		c0,1-0.1,1.8-0.4,2.3c-0.3,0.6-0.7,1-1.3,1.4c-0.4,0.2-0.9,0.4-1.6,0.5c-0.7,0.1-1.6,0.2-2.9,0.2h-5.9c-2.4,0-4.1-0.3-4.9-0.8
		c-0.8-0.5-1.2-1.6-1.2-3c0-0.1,0-0.2,0-0.4C93.2,43.7,93.2,43.4,93.3,43.2z"/>
	<path d="M117.6,47.5h-1.4l-4.5-9.8h4.1l2.9,6.7l3-6.7h4l-5.1,11.1c-0.3,0.6-0.5,1-0.8,1.4c-0.3,0.4-0.6,0.6-0.9,0.8
		c-0.3,0.2-0.6,0.3-1,0.4c-0.4,0.1-0.9,0.1-1.4,0.1c-0.3,0-0.6,0-0.8,0c-0.3,0-0.6,0-0.8-0.1V49c0.1,0,0.3,0,0.4,0
		c0.1,0,0.3,0,0.4,0c0.6,0,1.1-0.1,1.4-0.4C117.3,48.4,117.5,48,117.6,47.5z"/>
	<path d="M131,48h-3.7V37.8h3.7v1.6c0.4-0.6,1-1.1,1.6-1.3c0.7-0.3,1.7-0.4,3-0.4c1.7,0,2.9,0.3,3.8,0.9c0.8,0.6,1.3,1.6,1.3,2.8V48
		h-3.7v-5.2c0-0.9-0.2-1.5-0.6-1.8c-0.4-0.3-1.2-0.4-2.4-0.4c-1.1,0-1.8,0.2-2.3,0.6c-0.5,0.4-0.7,1-0.7,1.9V48z"/>
	<path d="M147.3,48.1c-1.7,0-3-0.3-3.8-0.9c-0.8-0.6-1.1-1.6-1.1-2.9v-2.8c0-1.5,0.4-2.5,1.1-3.1c0.7-0.6,2-0.9,3.8-0.9h3.5
		c1.7,0,3,0.3,3.8,0.8c0.8,0.6,1.2,1.5,1.2,2.7c0,0.1,0,0.3,0,0.4c0,0.1,0,0.3-0.1,0.4h-3.5v-0.1c0-0.5-0.2-0.9-0.5-1.2
		c-0.3-0.2-0.8-0.4-1.6-0.4h-1.8c-0.8,0-1.4,0.1-1.7,0.4c-0.3,0.3-0.5,0.8-0.5,1.5v1.3c0,0.7,0.2,1.1,0.5,1.4
		c0.3,0.3,0.9,0.4,1.7,0.4h1.6c0.9,0,1.5-0.1,1.8-0.4c0.3-0.2,0.4-0.7,0.4-1.3h3.7c0,0.1,0,0.2,0,0.2c0,0.1,0,0.2,0,0.4
		c0,1.4-0.4,2.4-1.1,2.9c-0.8,0.6-2.1,0.9-3.9,0.9H147.3z"/>
</g>
<path class="st0" d="M24.2,21.8L24.2,21.8v6.4h-8.3v-6.4H24.2 M24.2,20.1h-8.3c-1,0-1.7,0.8-1.7,1.7v6.4c0,1,0.8,1.7,1.7,1.7h8.3
	c1,0,1.7-0.8,1.7-1.7v-6.4C25.9,20.9,25.1,20.1,24.2,20.1"/>
<g class="st1">
	<g>
		<path class="st2" d="M28.1,27.4L28.1,27.4v6.4h-8.3v-6.4H28.1 M28.1,25.6h-8.3c-1,0-1.7,0.8-1.7,1.7v6.4c0,1,0.8,1.7,1.7,1.7h8.3
			c1,0,1.7-0.8,1.7-1.7v-6.4C29.8,26.4,29.1,25.6,28.1,25.6"/>
	</g>
</g>
<path class="st3" d="M24.2,32.9L24.2,32.9v6.4h-8.3v-6.4H24.2 M24.2,31.2h-8.3c-1,0-1.7,0.8-1.7,1.7v6.4c0,1,0.8,1.7,1.7,1.7h8.3
	c1,0,1.7-0.8,1.7-1.7v-6.4C25.9,31.9,25.1,31.2,24.2,31.2"/>
</svg>
