<?xml version="1.0" standalone="no"?>
<!DOCTYPE svg PUBLIC "-//W3C//DTD SVG 20010904//EN"
 "http://www.w3.org/TR/2001/REC-SVG-20010904/DTD/svg10.dtd">
<svg version="1.0" xmlns="http://www.w3.org/2000/svg"
 width="700.000000pt" height="466.000000pt" viewBox="0 0 700.000000 466.000000"
 preserveAspectRatio="xMidYMid meet">

<g transform="translate(0.000000,466.000000) scale(0.100000,-0.100000)"
fill="#000000" stroke="none">
<path d="M616 2858 c3 -13 71 -221 151 -463 80 -242 157 -478 172 -525 l28
-85 71 -3 71 -3 177 538 c97 296 179 544 182 551 3 9 -15 12 -69 12 l-74 0
-48 -153 c-27 -83 -82 -255 -122 -382 -41 -126 -82 -260 -92 -297 -10 -38 -20
-68 -23 -68 -4 0 -12 24 -19 53 -8 28 -45 151 -83 272 -39 121 -95 300 -126
398 l-57 177 -73 0 c-71 0 -73 -1 -66 -22z"/>
<path d="M1635 2858 c-29 -81 -275 -815 -275 -820 0 -5 24 -8 53 -8 l53 0 30
93 29 92 161 3 161 2 29 -92 30 -93 56 -3 57 -3 -142 420 -142 421 -48 0 c-29
0 -49 -5 -52 -12z m65 -174 c0 -12 85 -283 107 -341 4 -10 -23 -13 -116 -13
-67 0 -121 3 -121 8 -2 20 116 370 122 366 5 -3 8 -12 8 -20z"/>
<path d="M2080 2450 l0 -420 53 0 52 0 -3 197 c-1 109 -1 250 0 313 l3 115 69
-120 c37 -66 120 -207 182 -312 l115 -193 49 0 50 0 0 420 0 420 -50 0 -50 0
0 -305 c0 -168 -3 -305 -7 -305 -5 0 -23 28 -42 63 -19 34 -99 171 -178 305
l-144 242 -49 0 -50 0 0 -420z"/>
<path d="M2780 2450 l0 -422 188 4 c181 3 189 4 244 31 90 44 154 128 184 242
16 59 18 211 3 275 -25 107 -101 209 -194 258 -48 25 -58 27 -237 30 l-188 4
0 -422z m375 281 c190 -88 210 -427 32 -547 -40 -27 -49 -29 -169 -32 l-128
-4 0 301 0 301 113 0 c88 0 121 -4 152 -19z"/>
<path d="M3510 2450 l0 -420 230 0 230 0 0 60 0 60 -180 0 -180 0 0 130 0 130
140 0 140 0 0 55 0 55 -140 0 -140 0 0 115 0 115 179 0 180 0 -1 60 -1 60
-229 0 -228 0 0 -420z"/>
<path d="M4085 2450 l0 -420 53 0 52 0 0 150 0 150 68 0 69 0 71 -150 71 -150
55 0 c31 0 56 2 56 5 0 3 -35 74 -77 159 l-77 155 46 41 c115 100 119 304 9
411 -60 58 -102 69 -268 69 l-128 0 0 -420z m302 280 c64 -38 86 -135 48 -213
-24 -52 -63 -70 -162 -75 l-83 -5 0 157 0 156 83 0 c64 0 89 -4 114 -20z"/>
<path d="M4675 2451 l0 -421 165 0 c138 0 172 3 205 19 51 23 101 79 114 128
17 59 13 153 -8 198 -17 38 -74 98 -102 107 -9 3 -1 16 23 37 46 40 61 85 56
166 -4 72 -30 117 -86 156 -33 23 -45 24 -201 27 l-166 4 0 -421z m321 275
c29 -29 34 -41 34 -79 0 -85 -60 -127 -180 -127 l-70 0 0 120 0 120 91 0 c90
0 91 0 125 -34z m-7 -314 c55 -27 76 -64 76 -132 0 -44 -5 -66 -21 -87 -33
-44 -60 -53 -166 -53 l-98 0 0 145 0 145 88 0 c63 0 96 -5 121 -18z"/>
<path d="M5260 2450 l0 -420 50 0 50 0 0 420 0 420 -50 0 -50 0 0 -420z"/>
<path d="M5500 2450 l0 -420 225 0 225 0 0 60 0 60 -175 0 -175 0 0 360 0 360
-50 0 -50 0 0 -420z"/>
<path d="M5860 2810 l0 -60 110 0 110 0 0 -360 0 -360 50 0 50 0 0 360 0 360
110 0 110 0 0 60 0 60 -270 0 -270 0 0 -60z"/>
<path d="M1637 1840 c-186 -4 -340 -10 -343 -12 -15 -16 796 -23 2546 -23
1859 0 2654 9 2450 27 -115 11 -4227 18 -4653 8z"/>
</g>
</svg>
